<svg xmlns="http://www.w3.org/2000/svg" xmlns:svg="http://www.w3.org/2000/svg" id="svg2" width="540.291" height="189.545" version="1.1"><metadata id="metadata1032"/><g style="fill-opacity:1" id="g4" transform="translate(-111.3,-959.77058)"><line style="stroke:#000;stroke-width:.12mm" id="line6" x1="114.609" x2="112.5" y1="1084.598" y2="1087.169"/><line style="stroke:#000;stroke-width:.12mm" id="line8" x1="129.375" x2="114.609" y1="1065.528" y2="1084.598"/><line style="stroke:#000;stroke-width:.12mm" id="line10" x1="118.828" x2="116.719" y1="1092.482" y2="1144.41"/><line style="stroke:#000;stroke-width:.12mm" id="line12" x1="114.609" x2="118.828" y1="1084.598" y2="1092.482"/><line style="stroke:#000;stroke-width:.12mm" id="line14" x1="125.156" x2="120.937" y1="1102.205" y2="1124.077"/><line style="stroke:#000;stroke-width:.12mm" id="line16" x1="120.937" x2="123.047" y1="1124.077" y2="1138.947"/><line style="stroke:#000;stroke-width:.12mm" id="line18" x1="127.266" x2="125.156" y1="1099.335" y2="1102.205"/><line style="stroke:#000;stroke-width:.12mm" id="line20" x1="118.828" x2="127.266" y1="1092.482" y2="1099.335"/><line style="stroke:#000;stroke-width:.12mm" id="line22" x1="156.797" x2="129.375" y1="1063.997" y2="1065.528"/><line style="stroke:#000;stroke-width:.12mm" id="line24" x1="133.594" x2="131.484" y1="1143.336" y2="1148.116"/><line style="stroke:#000;stroke-width:.12mm" id="line26" x1="135.703" x2="133.594" y1="1111.624" y2="1143.336"/><line style="stroke:#000;stroke-width:.12mm" id="line28" x1="129.375" x2="135.703" y1="1065.528" y2="1111.624"/><line style="stroke:#000;stroke-width:.12mm" id="line30" x1="139.922" x2="137.813" y1="1115.069" y2="1130.601"/><line style="stroke:#000;stroke-width:.12mm" id="line32" x1="135.703" x2="139.922" y1="1111.624" y2="1115.069"/><line style="stroke:#000;stroke-width:.12mm" id="line34" x1="139.922" x2="142.031" y1="1115.069" y2="1120.697"/><line style="stroke:#000;stroke-width:.12mm" id="line36" x1="146.25" x2="144.141" y1="1140.665" y2="1147.889"/><line style="stroke:#000;stroke-width:.12mm" id="line38" x1="148.359" x2="146.25" y1="1129.696" y2="1140.665"/><line style="stroke:#000;stroke-width:.12mm" id="line40" x1="142.031" x2="148.359" y1="1120.697" y2="1129.696"/><line style="stroke:#000;stroke-width:.12mm" id="line42" x1="152.578" x2="150.469" y1="1138.309" y2="1144.611"/><line style="stroke:#000;stroke-width:.12mm" id="line44" x1="154.688" x2="152.578" y1="1133.126" y2="1138.309"/><line style="stroke:#000;stroke-width:.12mm" id="line46" x1="148.359" x2="154.688" y1="1129.696" y2="1133.126"/><line style="stroke:#000;stroke-width:.12mm" id="line48" x1="205.313" x2="156.797" y1="1061.208" y2="1063.997"/><line style="stroke:#000;stroke-width:.12mm" id="line50" x1="167.344" x2="158.906" y1="1083.279" y2="1090.468"/><line style="stroke:#000;stroke-width:.12mm" id="line52" x1="158.906" x2="161.016" y1="1090.468" y2="1101.435"/><line style="stroke:#000;stroke-width:.12mm" id="line54" x1="165.234" x2="163.125" y1="1120.71" y2="1144.19"/><line style="stroke:#000;stroke-width:.12mm" id="line56" x1="161.016" x2="165.234" y1="1101.435" y2="1120.71"/><line style="stroke:#000;stroke-width:.12mm" id="line58" x1="194.766" x2="167.344" y1="1078.359" y2="1083.279"/><line style="stroke:#000;stroke-width:.12mm" id="line60" x1="184.219" x2="169.453" y1="1091.072" y2="1104.438"/><line style="stroke:#000;stroke-width:.12mm" id="line62" x1="175.781" x2="171.563" y1="1116.785" y2="1133.318"/><line style="stroke:#000;stroke-width:.12mm" id="line64" x1="171.563" x2="173.672" y1="1133.318" y2="1141.525"/><line style="stroke:#000;stroke-width:.12mm" id="line66" x1="182.109" x2="175.781" y1="1114.011" y2="1116.785"/><line style="stroke:#000;stroke-width:.12mm" id="line68" x1="180" x2="177.891" y1="1118.985" y2="1127.138"/><line style="stroke:#000;stroke-width:.12mm" id="line70" x1="175.781" x2="180" y1="1116.785" y2="1118.985"/><line style="stroke:#000;stroke-width:.12mm" id="line72" x1="169.453" x2="182.109" y1="1104.438" y2="1114.011"/><line style="stroke:#000;stroke-width:.12mm" id="line74" x1="167.344" x2="184.219" y1="1083.279" y2="1091.072"/><line style="stroke:#000;stroke-width:.12mm" id="line76" x1="188.438" x2="186.328" y1="1120.518" y2="1133.584"/><line style="stroke:#000;stroke-width:.12mm" id="line78" x1="184.219" x2="188.438" y1="1091.072" y2="1120.518"/><line style="stroke:#000;stroke-width:.12mm" id="line80" x1="192.656" x2="190.547" y1="1126.382" y2="1130.178"/><line style="stroke:#000;stroke-width:.12mm" id="line82" x1="188.438" x2="192.656" y1="1120.518" y2="1126.382"/><line style="stroke:#000;stroke-width:.12mm" id="line84" x1="156.797" x2="194.766" y1="1063.997" y2="1078.359"/><line style="stroke:#000;stroke-width:.12mm" id="line86" x1="194.766" x2="196.875" y1="1078.359" y2="1086.796"/><line style="stroke:#000;stroke-width:.12mm" id="line88" x1="201.094" x2="198.984" y1="1100.745" y2="1107.632"/><line style="stroke:#000;stroke-width:.12mm" id="line90" x1="203.203" x2="201.094" y1="1098.073" y2="1100.745"/><line style="stroke:#000;stroke-width:.12mm" id="line92" x1="196.875" x2="203.203" y1="1086.796" y2="1098.073"/><line style="stroke:#000;stroke-width:.12mm" id="line94" x1="213.75" x2="205.313" y1="1043.987" y2="1061.208"/><line style="stroke:#000;stroke-width:.12mm" id="line96" x1="209.531" x2="207.422" y1="1127.727" y2="1143.298"/><line style="stroke:#000;stroke-width:.12mm" id="line98" x1="211.641" x2="209.531" y1="1126.285" y2="1127.727"/><line style="stroke:#000;stroke-width:.12mm" id="line100" x1="205.313" x2="211.641" y1="1061.208" y2="1126.285"/><line style="stroke:#000;stroke-width:.12mm" id="line102" x1="230.625" x2="213.75" y1="1012.474" y2="1043.987"/><line style="stroke:#000;stroke-width:.12mm" id="line104" x1="217.969" x2="215.859" y1="1130.661" y2="1138.036"/><line style="stroke:#000;stroke-width:.12mm" id="line106" x1="220.078" x2="217.969" y1="1127.508" y2="1130.661"/><line style="stroke:#000;stroke-width:.12mm" id="line108" x1="222.188" x2="220.078" y1="1099.767" y2="1127.508"/><line style="stroke:#000;stroke-width:.12mm" id="line110" x1="226.406" x2="222.188" y1="1061.143" y2="1099.767"/><line style="stroke:#000;stroke-width:.12mm" id="line112" x1="222.188" x2="224.297" y1="1099.767" y2="1147.575"/><line style="stroke:#000;stroke-width:.12mm" id="line114" x1="213.75" x2="226.406" y1="1043.987" y2="1061.143"/><line style="stroke:#000;stroke-width:.12mm" id="line116" x1="226.406" x2="228.516" y1="1061.143" y2="1095.627"/><line style="stroke:#000;stroke-width:.12mm" id="line118" x1="296.016" x2="230.625" y1="976.167" y2="1012.474"/><line style="stroke:#000;stroke-width:.12mm" id="line120" x1="247.5" x2="232.734" y1="1104.009" y2="1117.051"/><line style="stroke:#000;stroke-width:.12mm" id="line122" x1="236.953" x2="234.844" y1="1121.302" y2="1133.422"/><line style="stroke:#000;stroke-width:.12mm" id="line124" x1="232.734" x2="236.953" y1="1117.051" y2="1121.302"/><line style="stroke:#000;stroke-width:.12mm" id="line126" x1="241.172" x2="239.063" y1="1127.169" y2="1137.605"/><line style="stroke:#000;stroke-width:.12mm" id="line128" x1="236.953" x2="241.172" y1="1121.302" y2="1127.169"/><line style="stroke:#000;stroke-width:.12mm" id="line130" x1="241.172" x2="243.281" y1="1127.169" y2="1134.31"/><line style="stroke:#000;stroke-width:.12mm" id="line132" x1="243.281" x2="245.391" y1="1134.31" y2="1143.763"/><line style="stroke:#000;stroke-width:.12mm" id="line134" x1="266.484" x2="247.5" y1="1053.426" y2="1104.009"/><line style="stroke:#000;stroke-width:.12mm" id="line136" x1="255.937" x2="249.609" y1="1128.142" y2="1130.115"/><line style="stroke:#000;stroke-width:.12mm" id="line138" x1="253.828" x2="251.719" y1="1130.235" y2="1147.199"/><line style="stroke:#000;stroke-width:.12mm" id="line140" x1="249.609" x2="253.828" y1="1130.115" y2="1130.235"/><line style="stroke:#000;stroke-width:.12mm" id="line142" x1="260.156" x2="255.937" y1="1118.183" y2="1128.142"/><line style="stroke:#000;stroke-width:.12mm" id="line144" x1="255.937" x2="258.047" y1="1128.142" y2="1134.495"/><line style="stroke:#000;stroke-width:.12mm" id="line146" x1="247.5" x2="260.156" y1="1104.009" y2="1118.183"/><line style="stroke:#000;stroke-width:.12mm" id="line148" x1="264.375" x2="262.266" y1="1118.227" y2="1136.903"/><line style="stroke:#000;stroke-width:.12mm" id="line150" x1="260.156" x2="264.375" y1="1118.183" y2="1118.227"/><line style="stroke:#000;stroke-width:.12mm" id="line152" x1="289.688" x2="266.484" y1="1037.813" y2="1053.426"/><line style="stroke:#000;stroke-width:.12mm" id="line154" x1="270.703" x2="268.594" y1="1099.005" y2="1133.078"/><line style="stroke:#000;stroke-width:.12mm" id="line156" x1="274.922" x2="270.703" y1="1098.375" y2="1099.005"/><line style="stroke:#000;stroke-width:.12mm" id="line158" x1="270.703" x2="272.813" y1="1099.005" y2="1118.458"/><line style="stroke:#000;stroke-width:.12mm" id="line160" x1="277.031" x2="274.922" y1="1092.469" y2="1098.375"/><line style="stroke:#000;stroke-width:.12mm" id="line162" x1="266.484" x2="277.031" y1="1053.426" y2="1092.469"/><line style="stroke:#000;stroke-width:.12mm" id="line164" x1="281.25" x2="279.141" y1="1144.045" y2="1145.332"/><line style="stroke:#000;stroke-width:.12mm" id="line166" x1="283.359" x2="281.25" y1="1132.748" y2="1144.045"/><line style="stroke:#000;stroke-width:.12mm" id="line168" x1="285.469" x2="283.359" y1="1111.336" y2="1132.748"/><line style="stroke:#000;stroke-width:.12mm" id="line170" x1="277.031" x2="285.469" y1="1092.469" y2="1111.336"/><line style="stroke:#000;stroke-width:.12mm" id="line172" x1="285.469" x2="287.578" y1="1111.336" y2="1118.493"/><line style="stroke:#000;stroke-width:.12mm" id="line174" x1="230.625" x2="289.688" y1="1012.474" y2="1037.813"/><line style="stroke:#000;stroke-width:.12mm" id="line176" x1="289.688" x2="291.797" y1="1037.813" y2="1047.682"/><line style="stroke:#000;stroke-width:.12mm" id="line178" x1="291.797" x2="293.906" y1="1047.682" y2="1050.356"/><line style="stroke:#000;stroke-width:.12mm" id="line180" x1="342.422" x2="296.016" y1="966.901" y2="976.167"/><line style="stroke:#000;stroke-width:.12mm" id="line182" x1="300.234" x2="298.125" y1="1083.722" y2="1102.438"/><line style="stroke:#000;stroke-width:.12mm" id="line184" x1="308.672" x2="300.234" y1="1014.544" y2="1083.722"/><line style="stroke:#000;stroke-width:.12mm" id="line186" x1="300.234" x2="302.344" y1="1083.722" y2="1124.345"/><line style="stroke:#000;stroke-width:.12mm" id="line188" x1="306.563" x2="304.453" y1="1131.068" y2="1135.935"/><line style="stroke:#000;stroke-width:.12mm" id="line190" x1="302.344" x2="306.563" y1="1124.345" y2="1131.068"/><line style="stroke:#000;stroke-width:.12mm" id="line192" x1="312.891" x2="308.672" y1="1011.859" y2="1014.544"/><line style="stroke:#000;stroke-width:.12mm" id="line194" x1="308.672" x2="310.781" y1="1014.544" y2="1139.208"/><line style="stroke:#000;stroke-width:.12mm" id="line196" x1="296.016" x2="312.891" y1="976.167" y2="1011.859"/><line style="stroke:#000;stroke-width:.12mm" id="line198" x1="317.109" x2="315" y1="1112.83" y2="1142.954"/><line style="stroke:#000;stroke-width:.12mm" id="line200" x1="319.219" x2="317.109" y1="1047.234" y2="1112.83"/><line style="stroke:#000;stroke-width:.12mm" id="line202" x1="325.547" x2="319.219" y1="1046.151" y2="1047.234"/><line style="stroke:#000;stroke-width:.12mm" id="line204" x1="323.438" x2="321.328" y1="1126.375" y2="1135.27"/><line style="stroke:#000;stroke-width:.12mm" id="line206" x1="319.219" x2="323.438" y1="1047.234" y2="1126.375"/><line style="stroke:#000;stroke-width:.12mm" id="line208" x1="312.891" x2="325.547" y1="1011.859" y2="1046.151"/><line style="stroke:#000;stroke-width:.12mm" id="line210" x1="329.766" x2="327.656" y1="1100.902" y2="1107.851"/><line style="stroke:#000;stroke-width:.12mm" id="line212" x1="331.875" x2="329.766" y1="1092.445" y2="1100.902"/><line style="stroke:#000;stroke-width:.12mm" id="line214" x1="338.203" x2="331.875" y1="1052.444" y2="1092.445"/><line style="stroke:#000;stroke-width:.12mm" id="line216" x1="331.875" x2="333.984" y1="1092.445" y2="1097.539"/><line style="stroke:#000;stroke-width:.12mm" id="line218" x1="333.984" x2="336.094" y1="1097.539" y2="1129.17"/><line style="stroke:#000;stroke-width:.12mm" id="line220" x1="325.547" x2="338.203" y1="1046.151" y2="1052.444"/><line style="stroke:#000;stroke-width:.12mm" id="line222" x1="338.203" x2="340.313" y1="1052.444" y2="1118.489"/><line style="stroke:#000;stroke-width:.12mm" id="line224" x1="388.828" x2="342.422" y1="960.971" y2="966.901"/><line style="stroke:#000;stroke-width:.12mm" id="line226" x1="346.641" x2="344.531" y1="1083.955" y2="1124.893"/><line style="stroke:#000;stroke-width:.12mm" id="line228" x1="348.75" x2="346.641" y1="1081.622" y2="1083.955"/><line style="stroke:#000;stroke-width:.12mm" id="line230" x1="367.734" x2="348.75" y1="1072.294" y2="1081.622"/><line style="stroke:#000;stroke-width:.12mm" id="line232" x1="348.75" x2="350.859" y1="1081.622" y2="1097.905"/><line style="stroke:#000;stroke-width:.12mm" id="line234" x1="350.859" x2="352.969" y1="1097.905" y2="1117.019"/><line style="stroke:#000;stroke-width:.12mm" id="line236" x1="357.188" x2="355.078" y1="1140.215" y2="1140.964"/><line style="stroke:#000;stroke-width:.12mm" id="line238" x1="361.406" x2="357.188" y1="1121.586" y2="1140.215"/><line style="stroke:#000;stroke-width:.12mm" id="line240" x1="357.188" x2="359.297" y1="1140.215" y2="1145.513"/><line style="stroke:#000;stroke-width:.12mm" id="line242" x1="352.969" x2="361.406" y1="1117.019" y2="1121.586"/><line style="stroke:#000;stroke-width:.12mm" id="line244" x1="365.625" x2="363.516" y1="1134.647" y2="1138.479"/><line style="stroke:#000;stroke-width:.12mm" id="line246" x1="361.406" x2="365.625" y1="1121.586" y2="1134.647"/><line style="stroke:#000;stroke-width:.12mm" id="line248" x1="371.953" x2="367.734" y1="1025.126" y2="1072.294"/><line style="stroke:#000;stroke-width:.12mm" id="line250" x1="367.734" x2="369.844" y1="1072.294" y2="1117.358"/><line style="stroke:#000;stroke-width:.12mm" id="line252" x1="342.422" x2="371.953" y1="966.901" y2="1025.126"/><line style="stroke:#000;stroke-width:.12mm" id="line254" x1="386.719" x2="374.063" y1="1052.111" y2="1054.325"/><line style="stroke:#000;stroke-width:.12mm" id="line256" x1="378.281" x2="376.172" y1="1115.473" y2="1138.302"/><line style="stroke:#000;stroke-width:.12mm" id="line258" x1="380.391" x2="378.281" y1="1112.566" y2="1115.473"/><line style="stroke:#000;stroke-width:.12mm" id="line260" x1="374.063" x2="380.391" y1="1054.325" y2="1112.566"/><line style="stroke:#000;stroke-width:.12mm" id="line262" x1="380.391" x2="382.5" y1="1112.566" y2="1134.911"/><line style="stroke:#000;stroke-width:.12mm" id="line264" x1="382.5" x2="384.609" y1="1134.911" y2="1147.868"/><line style="stroke:#000;stroke-width:.12mm" id="line266" x1="371.953" x2="386.719" y1="1025.126" y2="1052.111"/><line style="stroke:#000;stroke-width:.12mm" id="line268" x1="393.047" x2="390.938" y1="991.798" y2="1122.129"/><line style="stroke:#000;stroke-width:.12mm" id="line270" x1="388.828" x2="393.047" y1="960.971" y2="991.798"/><line style="stroke:#000;stroke-width:.12mm" id="line272" x1="397.266" x2="395.156" y1="1080.322" y2="1142.087"/><line style="stroke:#000;stroke-width:.12mm" id="line274" x1="422.578" x2="397.266" y1="1051.897" y2="1080.322"/><line style="stroke:#000;stroke-width:.12mm" id="line276" x1="401.484" x2="399.375" y1="1104.211" y2="1143.479"/><line style="stroke:#000;stroke-width:.12mm" id="line278" x1="403.594" x2="401.484" y1="1085.461" y2="1104.211"/><line style="stroke:#000;stroke-width:.12mm" id="line280" x1="409.922" x2="403.594" y1="1084.113" y2="1085.461"/><line style="stroke:#000;stroke-width:.12mm" id="line282" x1="403.594" x2="405.703" y1="1085.461" y2="1121.237"/><line style="stroke:#000;stroke-width:.12mm" id="line284" x1="405.703" x2="407.813" y1="1121.237" y2="1127.902"/><line style="stroke:#000;stroke-width:.12mm" id="line286" x1="414.141" x2="409.922" y1="1082.448" y2="1084.113"/><line style="stroke:#000;stroke-width:.12mm" id="line288" x1="409.922" x2="412.031" y1="1084.113" y2="1124.293"/><line style="stroke:#000;stroke-width:.12mm" id="line290" x1="397.266" x2="414.141" y1="1080.322" y2="1082.448"/><line style="stroke:#000;stroke-width:.12mm" id="line292" x1="418.359" x2="416.25" y1="1092.334" y2="1143.425"/><line style="stroke:#000;stroke-width:.12mm" id="line294" x1="420.469" x2="418.359" y1="1084.848" y2="1092.334"/><line style="stroke:#000;stroke-width:.12mm" id="line296" x1="414.141" x2="420.469" y1="1082.448" y2="1084.848"/><line style="stroke:#000;stroke-width:.12mm" id="line298" x1="437.344" x2="422.578" y1="1015.452" y2="1051.897"/><line style="stroke:#000;stroke-width:.12mm" id="line300" x1="422.578" x2="424.688" y1="1051.897" y2="1086.725"/><line style="stroke:#000;stroke-width:.12mm" id="line302" x1="431.016" x2="426.797" y1="1116.182" y2="1130.426"/><line style="stroke:#000;stroke-width:.12mm" id="line304" x1="426.797" x2="428.906" y1="1130.426" y2="1137.913"/><line style="stroke:#000;stroke-width:.12mm" id="line306" x1="424.688" x2="431.016" y1="1086.725" y2="1116.182"/><line style="stroke:#000;stroke-width:.12mm" id="line308" x1="435.234" x2="433.125" y1="1117.114" y2="1119.88"/><line style="stroke:#000;stroke-width:.12mm" id="line310" x1="431.016" x2="435.234" y1="1116.182" y2="1117.114"/><line style="stroke:#000;stroke-width:.12mm" id="line312" x1="549.141" x2="437.344" y1="1009.123" y2="1015.452"/><line style="stroke:#000;stroke-width:.12mm" id="line314" x1="441.563" x2="439.453" y1="1082.402" y2="1131.67"/><line style="stroke:#000;stroke-width:.12mm" id="line316" x1="445.781" x2="441.563" y1="1078.578" y2="1082.402"/><line style="stroke:#000;stroke-width:.12mm" id="line318" x1="441.563" x2="443.672" y1="1082.402" y2="1123.065"/><line style="stroke:#000;stroke-width:.12mm" id="line320" x1="447.891" x2="445.781" y1="1065.791" y2="1078.578"/><line style="stroke:#000;stroke-width:.12mm" id="line322" x1="452.109" x2="447.891" y1="1036.601" y2="1065.791"/><line style="stroke:#000;stroke-width:.12mm" id="line324" x1="447.891" x2="450" y1="1065.791" y2="1100.244"/><line style="stroke:#000;stroke-width:.12mm" id="line326" x1="504.844" x2="452.109" y1="1020.631" y2="1036.601"/><line style="stroke:#000;stroke-width:.12mm" id="line328" x1="456.328" x2="454.219" y1="1135.419" y2="1139.01"/><line style="stroke:#000;stroke-width:.12mm" id="line330" x1="458.438" x2="456.328" y1="1088.805" y2="1135.419"/><line style="stroke:#000;stroke-width:.12mm" id="line332" x1="460.547" x2="458.438" y1="1073.881" y2="1088.805"/><line style="stroke:#000;stroke-width:.12mm" id="line334" x1="466.875" x2="460.547" y1="1070.431" y2="1073.881"/><line style="stroke:#000;stroke-width:.12mm" id="line336" x1="460.547" x2="462.656" y1="1073.881" y2="1134.687"/><line style="stroke:#000;stroke-width:.12mm" id="line338" x1="462.656" x2="464.766" y1="1134.687" y2="1145.668"/><line style="stroke:#000;stroke-width:.12mm" id="line340" x1="452.109" x2="466.875" y1="1036.601" y2="1070.431"/><line style="stroke:#000;stroke-width:.12mm" id="line342" x1="477.422" x2="468.984" y1="1101.146" y2="1120.851"/><line style="stroke:#000;stroke-width:.12mm" id="line344" x1="468.984" x2="471.094" y1="1120.851" y2="1123.249"/><line style="stroke:#000;stroke-width:.12mm" id="line346" x1="475.313" x2="473.203" y1="1134.658" y2="1140.939"/><line style="stroke:#000;stroke-width:.12mm" id="line348" x1="471.094" x2="475.313" y1="1123.249" y2="1134.658"/><line style="stroke:#000;stroke-width:.12mm" id="line350" x1="466.875" x2="477.422" y1="1070.431" y2="1101.146"/><line style="stroke:#000;stroke-width:.12mm" id="line352" x1="481.641" x2="479.531" y1="1109.892" y2="1119.289"/><line style="stroke:#000;stroke-width:.12mm" id="line354" x1="477.422" x2="481.641" y1="1101.146" y2="1109.892"/><line style="stroke:#000;stroke-width:.12mm" id="line356" x1="490.078" x2="483.75" y1="1122.697" y2="1135.935"/><line style="stroke:#000;stroke-width:.12mm" id="line358" x1="483.75" x2="485.859" y1="1135.935" y2="1136.082"/><line style="stroke:#000;stroke-width:.12mm" id="line360" x1="485.859" x2="487.969" y1="1136.082" y2="1141.988"/><line style="stroke:#000;stroke-width:.12mm" id="line362" x1="500.625" x2="490.078" y1="1117.628" y2="1122.697"/><line style="stroke:#000;stroke-width:.12mm" id="line364" x1="494.297" x2="492.188" y1="1125.892" y2="1141.913"/><line style="stroke:#000;stroke-width:.12mm" id="line366" x1="490.078" x2="494.297" y1="1122.697" y2="1125.892"/><line style="stroke:#000;stroke-width:.12mm" id="line368" x1="498.516" x2="496.406" y1="1136.922" y2="1143.794"/><line style="stroke:#000;stroke-width:.12mm" id="line370" x1="494.297" x2="498.516" y1="1125.892" y2="1136.922"/><line style="stroke:#000;stroke-width:.12mm" id="line372" x1="481.641" x2="500.625" y1="1109.892" y2="1117.628"/><line style="stroke:#000;stroke-width:.12mm" id="line374" x1="500.625" x2="502.734" y1="1117.628" y2="1118.02"/><line style="stroke:#000;stroke-width:.12mm" id="line376" x1="437.344" x2="504.844" y1="1015.452" y2="1020.631"/><line style="stroke:#000;stroke-width:.12mm" id="line378" x1="509.063" x2="506.953" y1="1134.849" y2="1142.841"/><line style="stroke:#000;stroke-width:.12mm" id="line380" x1="511.172" x2="509.063" y1="1131.313" y2="1134.849"/><line style="stroke:#000;stroke-width:.12mm" id="line382" x1="513.281" x2="511.172" y1="1077.82" y2="1131.313"/><line style="stroke:#000;stroke-width:.12mm" id="line384" x1="515.391" x2="513.281" y1="1042.137" y2="1077.82"/><line style="stroke:#000;stroke-width:.12mm" id="line386" x1="504.844" x2="515.391" y1="1020.631" y2="1042.137"/><line style="stroke:#000;stroke-width:.12mm" id="line388" x1="519.609" x2="517.5" y1="1115.348" y2="1133.682"/><line style="stroke:#000;stroke-width:.12mm" id="line390" x1="525.938" x2="519.609" y1="1103.726" y2="1115.348"/><line style="stroke:#000;stroke-width:.12mm" id="line392" x1="519.609" x2="521.719" y1="1115.348" y2="1131.659"/><line style="stroke:#000;stroke-width:.12mm" id="line394" x1="521.719" x2="523.828" y1="1131.659" y2="1141.068"/><line style="stroke:#000;stroke-width:.12mm" id="line396" x1="534.375" x2="525.938" y1="1082.427" y2="1103.726"/><line style="stroke:#000;stroke-width:.12mm" id="line398" x1="525.938" x2="528.047" y1="1103.726" y2="1137.121"/><line style="stroke:#000;stroke-width:.12mm" id="line400" x1="528.047" x2="530.156" y1="1137.121" y2="1144.537"/><line style="stroke:#000;stroke-width:.12mm" id="line402" x1="530.156" x2="532.266" y1="1144.537" y2="1145.307"/><line style="stroke:#000;stroke-width:.12mm" id="line404" x1="515.391" x2="534.375" y1="1042.137" y2="1082.427"/><line style="stroke:#000;stroke-width:.12mm" id="line406" x1="538.594" x2="536.484" y1="1089.229" y2="1146.466"/><line style="stroke:#000;stroke-width:.12mm" id="line408" x1="534.375" x2="538.594" y1="1082.427" y2="1089.229"/><line style="stroke:#000;stroke-width:.12mm" id="line410" x1="544.922" x2="540.703" y1="1098.596" y2="1104.766"/><line style="stroke:#000;stroke-width:.12mm" id="line412" x1="540.703" x2="542.813" y1="1104.766" y2="1138.28"/><line style="stroke:#000;stroke-width:.12mm" id="line414" x1="538.594" x2="544.922" y1="1089.229" y2="1098.596"/><line style="stroke:#000;stroke-width:.12mm" id="line416" x1="544.922" x2="547.031" y1="1098.596" y2="1143.821"/><line style="stroke:#000;stroke-width:.12mm" id="line418" x1="627.188" x2="549.141" y1="1003.145" y2="1009.123"/><line style="stroke:#000;stroke-width:.12mm" id="line420" x1="555.469" x2="551.25" y1="1114.479" y2="1129.454"/><line style="stroke:#000;stroke-width:.12mm" id="line422" x1="551.25" x2="553.359" y1="1129.454" y2="1141.783"/><line style="stroke:#000;stroke-width:.12mm" id="line424" x1="557.578" x2="555.469" y1="1100.972" y2="1114.479"/><line style="stroke:#000;stroke-width:.12mm" id="line426" x1="572.344" x2="557.578" y1="1088.646" y2="1100.972"/><line style="stroke:#000;stroke-width:.12mm" id="line428" x1="566.016" x2="559.688" y1="1104.645" y2="1107.713"/><line style="stroke:#000;stroke-width:.12mm" id="line430" x1="559.688" x2="561.797" y1="1107.713" y2="1133.162"/><line style="stroke:#000;stroke-width:.12mm" id="line432" x1="561.797" x2="563.906" y1="1133.162" y2="1147.493"/><line style="stroke:#000;stroke-width:.12mm" id="line434" x1="557.578" x2="566.016" y1="1100.972" y2="1104.645"/><line style="stroke:#000;stroke-width:.12mm" id="line436" x1="566.016" x2="568.125" y1="1104.645" y2="1116.107"/><line style="stroke:#000;stroke-width:.12mm" id="line438" x1="568.125" x2="570.234" y1="1116.107" y2="1116.281"/><line style="stroke:#000;stroke-width:.12mm" id="line440" x1="576.563" x2="572.344" y1="1088.555" y2="1088.646"/><line style="stroke:#000;stroke-width:.12mm" id="line442" x1="572.344" x2="574.453" y1="1088.646" y2="1104.676"/><line style="stroke:#000;stroke-width:.12mm" id="line444" x1="582.891" x2="576.563" y1="1087.29" y2="1088.555"/><line style="stroke:#000;stroke-width:.12mm" id="line446" x1="576.563" x2="578.672" y1="1088.555" y2="1142.139"/><line style="stroke:#000;stroke-width:.12mm" id="line448" x1="578.672" x2="580.781" y1="1142.139" y2="1148.076"/><line style="stroke:#000;stroke-width:.12mm" id="line450" x1="587.109" x2="582.891" y1="1075.443" y2="1087.29"/><line style="stroke:#000;stroke-width:.12mm" id="line452" x1="582.891" x2="585" y1="1087.29" y2="1111.823"/><line style="stroke:#000;stroke-width:.12mm" id="line454" x1="589.219" x2="587.109" y1="1071.332" y2="1075.443"/><line style="stroke:#000;stroke-width:.12mm" id="line456" x1="608.203" x2="589.219" y1="1067.611" y2="1071.332"/><line style="stroke:#000;stroke-width:.12mm" id="line458" x1="589.219" x2="591.328" y1="1071.332" y2="1110.585"/><line style="stroke:#000;stroke-width:.12mm" id="line460" x1="599.766" x2="593.438" y1="1112.466" y2="1118.633"/><line style="stroke:#000;stroke-width:.12mm" id="line462" x1="597.656" x2="595.547" y1="1127.349" y2="1144.44"/><line style="stroke:#000;stroke-width:.12mm" id="line464" x1="593.438" x2="597.656" y1="1118.633" y2="1127.349"/><line style="stroke:#000;stroke-width:.12mm" id="line466" x1="591.328" x2="599.766" y1="1110.585" y2="1112.466"/><line style="stroke:#000;stroke-width:.12mm" id="line468" x1="603.984" x2="601.875" y1="1121.592" y2="1147.713"/><line style="stroke:#000;stroke-width:.12mm" id="line470" x1="599.766" x2="603.984" y1="1112.466" y2="1121.592"/><line style="stroke:#000;stroke-width:.12mm" id="line472" x1="603.984" x2="606.094" y1="1121.592" y2="1133.585"/><line style="stroke:#000;stroke-width:.12mm" id="line474" x1="549.141" x2="608.203" y1="1009.123" y2="1067.611"/><line style="stroke:#000;stroke-width:.12mm" id="line476" x1="612.422" x2="610.313" y1="1096.152" y2="1130.687"/><line style="stroke:#000;stroke-width:.12mm" id="line478" x1="620.859" x2="612.422" y1="1092.1" y2="1096.152"/><line style="stroke:#000;stroke-width:.12mm" id="line480" x1="612.422" x2="614.531" y1="1096.152" y2="1116.014"/><line style="stroke:#000;stroke-width:.12mm" id="line482" x1="614.531" x2="616.641" y1="1116.014" y2="1128.401"/><line style="stroke:#000;stroke-width:.12mm" id="line484" x1="616.641" x2="618.75" y1="1128.401" y2="1143.662"/><line style="stroke:#000;stroke-width:.12mm" id="line486" x1="608.203" x2="620.859" y1="1067.611" y2="1092.1"/><line style="stroke:#000;stroke-width:.12mm" id="line488" x1="620.859" x2="622.969" y1="1092.1" y2="1120.214"/><line style="stroke:#000;stroke-width:.12mm" id="line490" x1="622.969" x2="625.078" y1="1120.214" y2="1123.13"/><line style="stroke:#000;stroke-width:.12mm" id="line492" x1="393.047" x2="627.188" y1="991.798" y2="1003.145"/><line style="stroke:#000;stroke-width:.12mm" id="line494" x1="631.406" x2="629.297" y1="1101.028" y2="1115.891"/><line style="stroke:#000;stroke-width:.12mm" id="line496" x1="633.516" x2="631.406" y1="1039.285" y2="1101.028"/><line style="stroke:#000;stroke-width:.12mm" id="line498" x1="627.188" x2="633.516" y1="1003.145" y2="1039.285"/><line style="stroke:#000;stroke-width:.12mm" id="line500" x1="639.844" x2="635.625" y1="1079.338" y2="1105.467"/><line style="stroke:#000;stroke-width:.12mm" id="line502" x1="635.625" x2="637.734" y1="1105.467" y2="1132.688"/><line style="stroke:#000;stroke-width:.12mm" id="line504" x1="633.516" x2="639.844" y1="1039.285" y2="1079.338"/><line style="stroke:#000;stroke-width:.12mm" id="line506" x1="644.063" x2="641.953" y1="1124.135" y2="1131.164"/><line style="stroke:#000;stroke-width:.12mm" id="line508" x1="639.844" x2="644.063" y1="1079.338" y2="1124.135"/><line style="stroke:#000;stroke-width:.12mm" id="line510" x1="648.281" x2="646.172" y1="1138.572" y2="1147.168"/><line style="stroke:#000;stroke-width:.12mm" id="line512" x1="644.063" x2="648.281" y1="1124.135" y2="1138.572"/><line style="stroke:#000;stroke-width:.12mm" id="line514" x1="648.281" x2="650.391" y1="1138.572" y2="1140.612"/><circle style="fill:red;stroke:red;stroke-width:0" id="circle516" cx="112.5" cy="1087.169" r="1.2" d="m 113.7,1087.1688 c 0,0.6628 -0.53726,1.2 -1.2,1.2 -0.66274,0 -1.2,-0.5372 -1.2,-1.2 0,-0.6627 0.53726,-1.2 1.2,-1.2 0.66274,0 1.2,0.5373 1.2,1.2 z"/><circle style="fill:red;stroke:red;stroke-width:0" id="circle518" cx="114.609" cy="1084.598" r="1.2" d="m 115.80938,1084.5983 c 0,0.6627 -0.53726,1.2 -1.2,1.2 -0.66274,0 -1.2,-0.5373 -1.2,-1.2 0,-0.6628 0.53726,-1.2 1.2,-1.2 0.66274,0 1.2,0.5372 1.2,1.2 z"/><circle style="fill:red;stroke:red;stroke-width:0" id="circle520" cx="116.719" cy="1144.41" r="1.2" d="m 117.91875,1144.4098 c 0,0.6627 -0.53726,1.2 -1.2,1.2 -0.66274,0 -1.2,-0.5373 -1.2,-1.2 0,-0.6628 0.53726,-1.2 1.2,-1.2 0.66274,0 1.2,0.5372 1.2,1.2 z"/><circle style="fill:red;stroke:red;stroke-width:0" id="circle522" cx="118.828" cy="1092.482" r="1.2" d="m 120.02812,1092.4819 c 0,0.6628 -0.53726,1.2 -1.2,1.2 -0.66274,0 -1.2,-0.5372 -1.2,-1.2 0,-0.6627 0.53726,-1.2 1.2,-1.2 0.66274,0 1.2,0.5373 1.2,1.2 z"/><circle style="fill:red;stroke:red;stroke-width:0" id="circle524" cx="120.937" cy="1124.077" r="1.2" d="m 122.13749,1124.077 c 0,0.6628 -0.53726,1.2 -1.2,1.2 -0.66274,0 -1.2,-0.5372 -1.2,-1.2 0,-0.6627 0.53726,-1.2 1.2,-1.2 0.66274,0 1.2,0.5373 1.2,1.2 z"/><circle style="fill:red;stroke:red;stroke-width:0" id="circle526" cx="123.047" cy="1138.947" r="1.2" d="m 124.24688,1138.9475 c 0,0.6628 -0.53726,1.2 -1.2,1.2 -0.66274,0 -1.2,-0.5372 -1.2,-1.2 0,-0.6627 0.53726,-1.2 1.2,-1.2 0.66274,0 1.2,0.5373 1.2,1.2 z"/><circle style="fill:red;stroke:red;stroke-width:0" id="circle528" cx="125.156" cy="1102.205" r="1.2" d="m 126.35626,1102.2048 c 0,0.6628 -0.53726,1.2 -1.2,1.2 -0.66274,0 -1.2,-0.5372 -1.2,-1.2 0,-0.6627 0.53726,-1.2 1.2,-1.2 0.66274,0 1.2,0.5373 1.2,1.2 z"/><circle style="fill:red;stroke:red;stroke-width:0" id="circle530" cx="127.266" cy="1099.335" r="1.2" d="m 128.46562,1099.3346 c 0,0.6627 -0.53726,1.2 -1.2,1.2 -0.66274,0 -1.2,-0.5373 -1.2,-1.2 0,-0.6627 0.53726,-1.2 1.2,-1.2 0.66274,0 1.2,0.5373 1.2,1.2 z"/><circle style="fill:red;stroke:red;stroke-width:0" id="circle532" cx="129.375" cy="1065.528" r="1.2" d="m 130.575,1065.5281 c 0,0.6627 -0.53726,1.2 -1.2,1.2 -0.66274,0 -1.2,-0.5373 -1.2,-1.2 0,-0.6628 0.53726,-1.2 1.2,-1.2 0.66274,0 1.2,0.5372 1.2,1.2 z"/><circle style="fill:red;stroke:red;stroke-width:0" id="circle534" cx="131.484" cy="1148.116" r="1.2" d="m 132.68438,1148.116 c 0,0.6627 -0.53726,1.2 -1.20001,1.2 -0.66274,0 -1.2,-0.5373 -1.2,-1.2 0,-0.6628 0.53726,-1.2 1.2,-1.2 0.66275,0 1.20001,0.5372 1.20001,1.2 z"/><circle style="fill:red;stroke:red;stroke-width:0" id="circle536" cx="133.594" cy="1143.336" r="1.2" d="m 134.79375,1143.3357 c 0,0.6627 -0.53726,1.2 -1.2,1.2 -0.66274,0 -1.2,-0.5373 -1.2,-1.2 0,-0.6627 0.53726,-1.2 1.2,-1.2 0.66274,0 1.2,0.5373 1.2,1.2 z"/><circle style="fill:red;stroke:red;stroke-width:0" id="circle538" cx="135.703" cy="1111.624" r="1.2" d="m 136.90313,1111.6237 c 0,0.6627 -0.53726,1.2 -1.20001,1.2 -0.66274,0 -1.2,-0.5373 -1.2,-1.2 0,-0.6628 0.53726,-1.2 1.2,-1.2 0.66275,0 1.20001,0.5372 1.20001,1.2 z"/><circle style="fill:red;stroke:red;stroke-width:0" id="circle540" cx="137.813" cy="1130.601" r="1.2" d="m 139.0125,1130.6008 c 0,0.6628 -0.53726,1.2 -1.2,1.2 -0.66274,0 -1.2,-0.5372 -1.2,-1.2 0,-0.6627 0.53726,-1.2 1.2,-1.2 0.66274,0 1.2,0.5373 1.2,1.2 z"/><circle style="fill:red;stroke:red;stroke-width:0" id="circle542" cx="139.922" cy="1115.069" r="1.2" d="m 141.12188,1115.0686 c 0,0.6627 -0.53726,1.2 -1.20001,1.2 -0.66274,0 -1.2,-0.5373 -1.2,-1.2 0,-0.6627 0.53726,-1.2 1.2,-1.2 0.66275,0 1.20001,0.5373 1.20001,1.2 z"/><circle style="fill:red;stroke:red;stroke-width:0" id="circle544" cx="142.031" cy="1120.697" r="1.2" d="m 143.23125,1120.6965 c 0,0.6628 -0.53726,1.2 -1.2,1.2 -0.66274,0 -1.2,-0.5372 -1.2,-1.2 0,-0.6627 0.53726,-1.2 1.2,-1.2 0.66274,0 1.2,0.5373 1.2,1.2 z"/><circle style="fill:red;stroke:red;stroke-width:0" id="circle546" cx="144.141" cy="1147.889" r="1.2" d="m 145.34063,1147.8885 c 0,0.6628 -0.53726,1.2 -1.20001,1.2 -0.66274,0 -1.2,-0.5372 -1.2,-1.2 0,-0.6627 0.53726,-1.2 1.2,-1.2 0.66275,0 1.20001,0.5373 1.20001,1.2 z"/><circle style="fill:red;stroke:red;stroke-width:0" id="circle548" cx="146.25" cy="1140.665" r="1.2" d="m 147.45,1140.6646 c 0,0.6627 -0.53726,1.2 -1.2,1.2 -0.66274,0 -1.2,-0.5373 -1.2,-1.2 0,-0.6628 0.53726,-1.2 1.2,-1.2 0.66274,0 1.2,0.5372 1.2,1.2 z"/><circle style="fill:red;stroke:red;stroke-width:0" id="circle550" cx="148.359" cy="1129.696" r="1.2" d="m 149.55938,1129.6957 c 0,0.6627 -0.53726,1.2 -1.20001,1.2 -0.66274,0 -1.2,-0.5373 -1.2,-1.2 0,-0.6628 0.53726,-1.2 1.2,-1.2 0.66275,0 1.20001,0.5372 1.20001,1.2 z"/><circle style="fill:red;stroke:red;stroke-width:0" id="circle552" cx="150.469" cy="1144.611" r="1.2" d="m 151.66875,1144.6112 c 0,0.6627 -0.53726,1.2 -1.2,1.2 -0.66274,0 -1.2,-0.5373 -1.2,-1.2 0,-0.6627 0.53726,-1.2 1.2,-1.2 0.66274,0 1.2,0.5373 1.2,1.2 z"/><circle style="fill:red;stroke:red;stroke-width:0" id="circle554" cx="152.578" cy="1138.309" r="1.2" d="m 153.77813,1138.309 c 0,0.6627 -0.53726,1.2 -1.20001,1.2 -0.66274,0 -1.2,-0.5373 -1.2,-1.2 0,-0.6628 0.53726,-1.2 1.2,-1.2 0.66275,0 1.20001,0.5372 1.20001,1.2 z"/><circle style="fill:red;stroke:red;stroke-width:0" id="circle556" cx="154.688" cy="1133.126" r="1.2" d="m 155.8875,1133.1263 c 0,0.6628 -0.53726,1.2 -1.2,1.2 -0.66274,0 -1.2,-0.5372 -1.2,-1.2 0,-0.6627 0.53726,-1.2 1.2,-1.2 0.66274,0 1.2,0.5373 1.2,1.2 z"/><circle style="fill:red;stroke:red;stroke-width:0" id="circle558" cx="156.797" cy="1063.997" r="1.2" d="m 157.99688,1063.9968 c 0,0.6628 -0.53726,1.2 -1.20001,1.2 -0.66274,0 -1.2,-0.5372 -1.2,-1.2 0,-0.6627 0.53726,-1.2 1.2,-1.2 0.66275,0 1.20001,0.5373 1.20001,1.2 z"/><circle style="fill:red;stroke:red;stroke-width:0" id="circle560" cx="158.906" cy="1090.468" r="1.2" d="m 160.10625,1090.4679 c 0,0.6627 -0.53726,1.2 -1.2,1.2 -0.66274,0 -1.2,-0.5373 -1.2,-1.2 0,-0.6627 0.53726,-1.2 1.2,-1.2 0.66274,0 1.2,0.5373 1.2,1.2 z"/><circle style="fill:red;stroke:red;stroke-width:0" id="circle562" cx="161.016" cy="1101.435" r="1.2" d="m 162.21563,1101.4351 c 0,0.6627 -0.53726,1.2 -1.20001,1.2 -0.66274,0 -1.2,-0.5373 -1.2,-1.2 0,-0.6628 0.53726,-1.2 1.2,-1.2 0.66275,0 1.20001,0.5372 1.20001,1.2 z"/><circle style="fill:red;stroke:red;stroke-width:0" id="circle564" cx="163.125" cy="1144.19" r="1.2" d="m 164.325,1144.1898 c 0,0.6628 -0.53726,1.2 -1.2,1.2 -0.66274,0 -1.2,-0.5372 -1.2,-1.2 0,-0.6627 0.53726,-1.2 1.2,-1.2 0.66274,0 1.2,0.5373 1.2,1.2 z"/><circle style="fill:red;stroke:red;stroke-width:0" id="circle566" cx="165.234" cy="1120.71" r="1.2" d="m 166.43438,1120.7102 c 0,0.6627 -0.53726,1.2 -1.20001,1.2 -0.66274,0 -1.2,-0.5373 -1.2,-1.2 0,-0.6627 0.53726,-1.2 1.2,-1.2 0.66275,0 1.20001,0.5373 1.20001,1.2 z"/><circle style="fill:red;stroke:red;stroke-width:0" id="circle568" cx="167.344" cy="1083.279" r="1.2" d="m 168.54375,1083.2791 c 0,0.6627 -0.53726,1.2 -1.2,1.2 -0.66274,0 -1.2,-0.5373 -1.2,-1.2 0,-0.6628 0.53726,-1.2 1.2,-1.2 0.66274,0 1.2,0.5372 1.2,1.2 z"/><circle style="fill:red;stroke:red;stroke-width:0" id="circle570" cx="169.453" cy="1104.438" r="1.2" d="m 170.65313,1104.4381 c 0,0.6628 -0.53726,1.2 -1.20001,1.2 -0.66274,0 -1.2,-0.5372 -1.2,-1.2 0,-0.6627 0.53726,-1.2 1.2,-1.2 0.66275,0 1.20001,0.5373 1.20001,1.2 z"/><circle style="fill:red;stroke:red;stroke-width:0" id="circle572" cx="171.563" cy="1133.318" r="1.2" d="m 172.7625,1133.3177 c 0,0.6628 -0.53726,1.2 -1.2,1.2 -0.66274,0 -1.2,-0.5372 -1.2,-1.2 0,-0.6627 0.53726,-1.2 1.2,-1.2 0.66274,0 1.2,0.5373 1.2,1.2 z"/><circle style="fill:red;stroke:red;stroke-width:0" id="circle574" cx="173.672" cy="1141.525" r="1.2" d="m 174.87188,1141.5255 c 0,0.6628 -0.53726,1.2 -1.20001,1.2 -0.66274,0 -1.2,-0.5372 -1.2,-1.2 0,-0.6627 0.53726,-1.2 1.2,-1.2 0.66275,0 1.20001,0.5373 1.20001,1.2 z"/><circle style="fill:red;stroke:red;stroke-width:0" id="circle576" cx="175.781" cy="1116.785" r="1.2" d="m 176.98125,1116.7852 c 0,0.6627 -0.53726,1.2 -1.2,1.2 -0.66274,0 -1.2,-0.5373 -1.2,-1.2 0,-0.6628 0.53726,-1.2 1.2,-1.2 0.66274,0 1.2,0.5372 1.2,1.2 z"/><circle style="fill:red;stroke:red;stroke-width:0" id="circle578" cx="177.891" cy="1127.138" r="1.2" d="m 179.09063,1127.1377 c 0,0.6627 -0.53726,1.2 -1.20001,1.2 -0.66274,0 -1.2,-0.5373 -1.2,-1.2 0,-0.6627 0.53726,-1.2 1.2,-1.2 0.66275,0 1.20001,0.5373 1.20001,1.2 z"/><circle style="fill:red;stroke:red;stroke-width:0" id="circle580" cx="180" cy="1118.985" r="1.2" d="m 181.2,1118.9849 c 0,0.6627 -0.53726,1.2 -1.2,1.2 -0.66274,0 -1.2,-0.5373 -1.2,-1.2 0,-0.6628 0.53726,-1.2 1.2,-1.2 0.66274,0 1.2,0.5372 1.2,1.2 z"/><circle style="fill:red;stroke:red;stroke-width:0" id="circle582" cx="182.109" cy="1114.011" r="1.2" d="m 183.30938,1114.0114 c 0,0.6627 -0.53726,1.2 -1.20001,1.2 -0.66274,0 -1.2,-0.5373 -1.2,-1.2 0,-0.6628 0.53726,-1.2 1.2,-1.2 0.66275,0 1.20001,0.5372 1.20001,1.2 z"/><circle style="fill:red;stroke:red;stroke-width:0" id="circle584" cx="184.219" cy="1091.072" r="1.2" d="m 185.41875,1091.0725 c 0,0.6628 -0.53726,1.2 -1.2,1.2 -0.66274,0 -1.2,-0.5372 -1.2,-1.2 0,-0.6627 0.53726,-1.2 1.2,-1.2 0.66274,0 1.2,0.5373 1.2,1.2 z"/><circle style="fill:red;stroke:red;stroke-width:0" id="circle586" cx="186.328" cy="1133.584" r="1.2" d="m 187.52813,1133.5839 c 0,0.6627 -0.53726,1.2 -1.20001,1.2 -0.66274,0 -1.2,-0.5373 -1.2,-1.2 0,-0.6628 0.53726,-1.2 1.2,-1.2 0.66275,0 1.20001,0.5372 1.20001,1.2 z"/><circle style="fill:red;stroke:red;stroke-width:0" id="circle588" cx="188.438" cy="1120.518" r="1.2" d="m 189.6375,1120.5176 c 0,0.6627 -0.53726,1.2 -1.2,1.2 -0.66274,0 -1.2,-0.5373 -1.2,-1.2 0,-0.6628 0.53726,-1.2 1.2,-1.2 0.66274,0 1.2,0.5372 1.2,1.2 z"/><circle style="fill:red;stroke:red;stroke-width:0" id="circle590" cx="190.547" cy="1130.178" r="1.2" d="m 191.74688,1130.1777 c 0,0.6628 -0.53726,1.2 -1.20001,1.2 -0.66274,0 -1.2,-0.5372 -1.2,-1.2 0,-0.6627 0.53726,-1.2 1.2,-1.2 0.66275,0 1.20001,0.5373 1.20001,1.2 z"/><circle style="fill:red;stroke:red;stroke-width:0" id="circle592" cx="192.656" cy="1126.382" r="1.2" d="m 193.85625,1126.382 c 0,0.6627 -0.53726,1.2 -1.2,1.2 -0.66274,0 -1.2,-0.5373 -1.2,-1.2 0,-0.6628 0.53726,-1.2 1.2,-1.2 0.66274,0 1.2,0.5372 1.2,1.2 z"/><circle style="fill:red;stroke:red;stroke-width:0" id="circle594" cx="194.766" cy="1078.359" r="1.2" d="m 195.96563,1078.3586 c 0,0.6628 -0.53726,1.2 -1.20001,1.2 -0.66274,0 -1.2,-0.5372 -1.2,-1.2 0,-0.6627 0.53726,-1.2 1.2,-1.2 0.66275,0 1.20001,0.5373 1.20001,1.2 z"/><circle style="fill:red;stroke:red;stroke-width:0" id="circle596" cx="196.875" cy="1086.796" r="1.2" d="m 198.075,1086.7964 c 0,0.6627 -0.53726,1.2 -1.2,1.2 -0.66274,0 -1.2,-0.5373 -1.2,-1.2 0,-0.6628 0.53726,-1.2 1.2,-1.2 0.66274,0 1.2,0.5372 1.2,1.2 z"/><circle style="fill:red;stroke:red;stroke-width:0" id="circle598" cx="198.984" cy="1107.632" r="1.2" d="m 200.18438,1107.632 c 0,0.6627 -0.53726,1.2 -1.20001,1.2 -0.66274,0 -1.2,-0.5373 -1.2,-1.2 0,-0.6628 0.53726,-1.2 1.2,-1.2 0.66275,0 1.20001,0.5372 1.20001,1.2 z"/><circle style="fill:red;stroke:red;stroke-width:0" id="circle600" cx="201.094" cy="1100.745" r="1.2" d="m 202.29375,1100.7446 c 0,0.6628 -0.53726,1.2 -1.2,1.2 -0.66274,0 -1.2,-0.5372 -1.2,-1.2 0,-0.6627 0.53726,-1.2 1.2,-1.2 0.66274,0 1.2,0.5373 1.2,1.2 z"/><circle style="fill:red;stroke:red;stroke-width:0" id="circle602" cx="203.203" cy="1098.073" r="1.2" d="m 204.40313,1098.0731 c 0,0.6628 -0.53726,1.2 -1.20001,1.2 -0.66274,0 -1.2,-0.5372 -1.2,-1.2 0,-0.6627 0.53726,-1.2 1.2,-1.2 0.66275,0 1.20001,0.5373 1.20001,1.2 z"/><circle style="fill:red;stroke:red;stroke-width:0" id="circle604" cx="205.313" cy="1061.208" r="1.2" d="m 206.5125,1061.2083 c 0,0.6627 -0.53726,1.2 -1.2,1.2 -0.66274,0 -1.2,-0.5373 -1.2,-1.2 0,-0.6628 0.53726,-1.2 1.2,-1.2 0.66274,0 1.2,0.5372 1.2,1.2 z"/><circle style="fill:red;stroke:red;stroke-width:0" id="circle606" cx="207.422" cy="1143.298" r="1.2" d="m 208.62188,1143.2979 c 0,0.6627 -0.53726,1.2 -1.20001,1.2 -0.66274,0 -1.2,-0.5373 -1.2,-1.2 0,-0.6628 0.53726,-1.2 1.2,-1.2 0.66275,0 1.20001,0.5372 1.20001,1.2 z"/><circle style="fill:red;stroke:red;stroke-width:0" id="circle608" cx="209.531" cy="1127.727" r="1.2" d="m 210.73125,1127.7268 c 0,0.6627 -0.53726,1.2 -1.2,1.2 -0.66274,0 -1.2,-0.5373 -1.2,-1.2 0,-0.6627 0.53726,-1.2 1.2,-1.2 0.66274,0 1.2,0.5373 1.2,1.2 z"/><circle style="fill:red;stroke:red;stroke-width:0" id="circle610" cx="211.641" cy="1126.285" r="1.2" d="m 212.84063,1126.2848 c 0,0.6627 -0.53726,1.2 -1.20001,1.2 -0.66274,0 -1.2,-0.5373 -1.2,-1.2 0,-0.6628 0.53726,-1.2 1.2,-1.2 0.66275,0 1.20001,0.5372 1.20001,1.2 z"/><circle style="fill:red;stroke:red;stroke-width:0" id="circle612" cx="213.75" cy="1043.987" r="1.2" d="m 214.95,1043.9867 c 0,0.6627 -0.53726,1.2 -1.2,1.2 -0.66274,0 -1.2,-0.5373 -1.2,-1.2 0,-0.6627 0.53726,-1.2 1.2,-1.2 0.66274,0 1.2,0.5373 1.2,1.2 z"/><circle style="fill:red;stroke:red;stroke-width:0" id="circle614" cx="215.859" cy="1138.036" r="1.2" d="m 217.05938,1138.0363 c 0,0.6627 -0.53726,1.2 -1.20001,1.2 -0.66274,0 -1.2,-0.5373 -1.2,-1.2 0,-0.6628 0.53726,-1.2 1.2,-1.2 0.66275,0 1.20001,0.5372 1.20001,1.2 z"/><circle style="fill:red;stroke:red;stroke-width:0" id="circle616" cx="217.969" cy="1130.661" r="1.2" d="m 219.16875,1130.6611 c 0,0.6628 -0.53726,1.2 -1.2,1.2 -0.66274,0 -1.2,-0.5372 -1.2,-1.2 0,-0.6627 0.53726,-1.2 1.2,-1.2 0.66274,0 1.2,0.5373 1.2,1.2 z"/><circle style="fill:red;stroke:red;stroke-width:0" id="circle618" cx="220.078" cy="1127.508" r="1.2" d="m 221.27813,1127.5076 c 0,0.6627 -0.53726,1.2 -1.20001,1.2 -0.66274,0 -1.2,-0.5373 -1.2,-1.2 0,-0.6628 0.53726,-1.2 1.2,-1.2 0.66275,0 1.20001,0.5372 1.20001,1.2 z"/><circle style="fill:red;stroke:red;stroke-width:0" id="circle620" cx="222.188" cy="1099.767" r="1.2" d="m 223.3875,1099.7675 c 0,0.6627 -0.53726,1.2 -1.2,1.2 -0.66274,0 -1.2,-0.5373 -1.2,-1.2 0,-0.6628 0.53726,-1.2 1.2,-1.2 0.66274,0 1.2,0.5372 1.2,1.2 z"/><circle style="fill:red;stroke:red;stroke-width:0" id="circle622" cx="224.297" cy="1147.575" r="1.2" d="m 225.49688,1147.5754 c 0,0.6628 -0.53726,1.2 -1.20001,1.2 -0.66274,0 -1.2,-0.5372 -1.2,-1.2 0,-0.6627 0.53726,-1.2 1.2,-1.2 0.66275,0 1.20001,0.5373 1.20001,1.2 z"/><circle style="fill:red;stroke:red;stroke-width:0" id="circle624" cx="226.406" cy="1061.143" r="1.2" d="m 227.60625,1061.1434 c 0,0.6628 -0.53726,1.2 -1.2,1.2 -0.66274,0 -1.2,-0.5372 -1.2,-1.2 0,-0.6627 0.53726,-1.2 1.2,-1.2 0.66274,0 1.2,0.5373 1.2,1.2 z"/><circle style="fill:red;stroke:red;stroke-width:0" id="circle626" cx="228.516" cy="1095.627" r="1.2" d="m 229.71563,1095.6272 c 0,0.6627 -0.53726,1.2 -1.20001,1.2 -0.66274,0 -1.2,-0.5373 -1.2,-1.2 0,-0.6627 0.53726,-1.2 1.2,-1.2 0.66275,0 1.20001,0.5373 1.20001,1.2 z"/><circle style="fill:red;stroke:red;stroke-width:0" id="circle628" cx="230.625" cy="1012.474" r="1.2" d="m 231.825,1012.4742 c 0,0.6627 -0.53726,1.2 -1.2,1.2 -0.66274,0 -1.2,-0.5373 -1.2,-1.2 0,-0.6628 0.53726,-1.2 1.2,-1.2 0.66274,0 1.2,0.5372 1.2,1.2 z"/><circle style="fill:red;stroke:red;stroke-width:0" id="circle630" cx="232.734" cy="1117.051" r="1.2" d="m 233.93439,1117.051 c 0,0.6628 -0.53726,1.2 -1.2,1.2 -0.66274,0 -1.2,-0.5372 -1.2,-1.2 0,-0.6627 0.53726,-1.2 1.2,-1.2 0.66274,0 1.2,0.5373 1.2,1.2 z"/><circle style="fill:red;stroke:red;stroke-width:0" id="circle632" cx="234.844" cy="1133.422" r="1.2" d="m 236.04373,1133.4222 c 0,0.6628 -0.53725,1.2 -1.2,1.2 -0.66274,0 -1.2,-0.5372 -1.2,-1.2 0,-0.6627 0.53726,-1.2 1.2,-1.2 0.66275,0 1.2,0.5373 1.2,1.2 z"/><circle style="fill:red;stroke:red;stroke-width:0" id="circle634" cx="236.953" cy="1121.302" r="1.2" d="m 238.15313,1121.3022 c 0,0.6628 -0.53726,1.2 -1.20001,1.2 -0.66274,0 -1.2,-0.5372 -1.2,-1.2 0,-0.6627 0.53726,-1.2 1.2,-1.2 0.66275,0 1.20001,0.5373 1.20001,1.2 z"/><circle style="fill:red;stroke:red;stroke-width:0" id="circle636" cx="239.063" cy="1137.605" r="1.2" d="m 240.2625,1137.605 c 0,0.6627 -0.53726,1.2 -1.2,1.2 -0.66274,0 -1.2,-0.5373 -1.2,-1.2 0,-0.6628 0.53726,-1.2 1.2,-1.2 0.66274,0 1.2,0.5372 1.2,1.2 z"/><circle style="fill:red;stroke:red;stroke-width:0" id="circle638" cx="241.172" cy="1127.169" r="1.2" d="m 242.37188,1127.1688 c 0,0.6628 -0.53726,1.2 -1.20001,1.2 -0.66274,0 -1.2,-0.5372 -1.2,-1.2 0,-0.6627 0.53726,-1.2 1.2,-1.2 0.66275,0 1.20001,0.5373 1.20001,1.2 z"/><circle style="fill:red;stroke:red;stroke-width:0" id="circle640" cx="243.281" cy="1134.31" r="1.2" d="m 244.48127,1134.3099 c 0,0.6628 -0.53726,1.2 -1.2,1.2 -0.66275,0 -1.2,-0.5372 -1.2,-1.2 0,-0.6627 0.53725,-1.2 1.2,-1.2 0.66274,0 1.2,0.5373 1.2,1.2 z"/><circle style="fill:red;stroke:red;stroke-width:0" id="circle642" cx="245.391" cy="1143.763" r="1.2" d="m 246.59061,1143.7627 c 0,0.6627 -0.53726,1.2 -1.2,1.2 -0.66274,0 -1.2,-0.5373 -1.2,-1.2 0,-0.6627 0.53726,-1.2 1.2,-1.2 0.66274,0 1.2,0.5373 1.2,1.2 z"/><circle style="fill:red;stroke:red;stroke-width:0" id="circle644" cx="247.5" cy="1104.009" r="1.2" d="m 248.7,1104.0088 c 0,0.6627 -0.53726,1.2 -1.2,1.2 -0.66274,0 -1.2,-0.5373 -1.2,-1.2 0,-0.6628 0.53726,-1.2 1.2,-1.2 0.66274,0 1.2,0.5372 1.2,1.2 z"/><circle style="fill:red;stroke:red;stroke-width:0" id="circle646" cx="249.609" cy="1130.115" r="1.2" d="m 250.80938,1130.1147 c 0,0.6628 -0.53726,1.2 -1.20001,1.2 -0.66274,0 -1.2,-0.5372 -1.2,-1.2 0,-0.6627 0.53726,-1.2 1.2,-1.2 0.66275,0 1.20001,0.5373 1.20001,1.2 z"/><circle style="fill:red;stroke:red;stroke-width:0" id="circle648" cx="251.719" cy="1147.199" r="1.2" d="m 252.91875,1147.1987 c 0,0.6628 -0.53726,1.2 -1.2,1.2 -0.66274,0 -1.2,-0.5372 -1.2,-1.2 0,-0.6627 0.53726,-1.2 1.2,-1.2 0.66274,0 1.2,0.5373 1.2,1.2 z"/><circle style="fill:red;stroke:red;stroke-width:0" id="circle650" cx="253.828" cy="1130.235" r="1.2" d="m 255.02814,1130.2351 c 0,0.6627 -0.53726,1.2 -1.2,1.2 -0.66274,0 -1.2,-0.5373 -1.2,-1.2 0,-0.6627 0.53726,-1.2 1.2,-1.2 0.66274,0 1.2,0.5373 1.2,1.2 z"/><circle style="fill:red;stroke:red;stroke-width:0" id="circle652" cx="255.937" cy="1128.142" r="1.2" d="m 257.13748,1128.1418 c 0,0.6628 -0.53725,1.2 -1.2,1.2 -0.66274,0 -1.2,-0.5372 -1.2,-1.2 0,-0.6627 0.53726,-1.2 1.2,-1.2 0.66275,0 1.2,0.5373 1.2,1.2 z"/><circle style="fill:red;stroke:red;stroke-width:0" id="circle654" cx="258.047" cy="1134.495" r="1.2" d="m 259.24688,1134.4955 c 0,0.6627 -0.53726,1.2 -1.20001,1.2 -0.66274,0 -1.2,-0.5373 -1.2,-1.2 0,-0.6628 0.53726,-1.2 1.2,-1.2 0.66275,0 1.20001,0.5372 1.20001,1.2 z"/><circle style="fill:red;stroke:red;stroke-width:0" id="circle656" cx="260.156" cy="1118.183" r="1.2" d="m 261.35625,1118.1832 c 0,0.6628 -0.53726,1.2 -1.2,1.2 -0.66274,0 -1.2,-0.5372 -1.2,-1.2 0,-0.6627 0.53726,-1.2 1.2,-1.2 0.66274,0 1.2,0.5373 1.2,1.2 z"/><circle style="fill:red;stroke:red;stroke-width:0" id="circle658" cx="262.266" cy="1136.903" r="1.2" d="m 263.46563,1136.9028 c 0,0.6628 -0.53726,1.2 -1.20001,1.2 -0.66274,0 -1.2,-0.5372 -1.2,-1.2 0,-0.6627 0.53726,-1.2 1.2,-1.2 0.66275,0 1.20001,0.5373 1.20001,1.2 z"/><circle style="fill:red;stroke:red;stroke-width:0" id="circle660" cx="264.375" cy="1118.227" r="1.2" d="m 265.575,1118.2268 c 0,0.6627 -0.53726,1.2 -1.2,1.2 -0.66274,0 -1.2,-0.5373 -1.2,-1.2 0,-0.6627 0.53726,-1.2 1.2,-1.2 0.66274,0 1.2,0.5373 1.2,1.2 z"/><circle style="fill:red;stroke:red;stroke-width:0" id="circle662" cx="266.484" cy="1053.426" r="1.2" d="m 267.68438,1053.4261 c 0,0.6628 -0.53726,1.2 -1.20001,1.2 -0.66274,0 -1.2,-0.5372 -1.2,-1.2 0,-0.6627 0.53726,-1.2 1.2,-1.2 0.66275,0 1.20001,0.5373 1.20001,1.2 z"/><circle style="fill:red;stroke:red;stroke-width:0" id="circle664" cx="268.594" cy="1133.078" r="1.2" d="m 269.79375,1133.0782 c 0,0.6628 -0.53726,1.2 -1.2,1.2 -0.66274,0 -1.2,-0.5372 -1.2,-1.2 0,-0.6627 0.53726,-1.2 1.2,-1.2 0.66274,0 1.2,0.5373 1.2,1.2 z"/><circle style="fill:red;stroke:red;stroke-width:0" id="circle666" cx="270.703" cy="1099.005" r="1.2" d="m 271.90313,1099.0055 c 0,0.6627 -0.53726,1.2 -1.20001,1.2 -0.66274,0 -1.2,-0.5373 -1.2,-1.2 0,-0.6627 0.53726,-1.2 1.2,-1.2 0.66275,0 1.20001,0.5373 1.20001,1.2 z"/><circle style="fill:red;stroke:red;stroke-width:0" id="circle668" cx="272.813" cy="1118.458" r="1.2" d="m 274.0125,1118.4584 c 0,0.6627 -0.53726,1.2 -1.2,1.2 -0.66274,0 -1.2,-0.5373 -1.2,-1.2 0,-0.6628 0.53726,-1.2 1.2,-1.2 0.66274,0 1.2,0.5372 1.2,1.2 z"/><circle style="fill:red;stroke:red;stroke-width:0" id="circle670" cx="274.922" cy="1098.375" r="1.2" d="m 276.12188,1098.3752 c 0,0.6628 -0.53726,1.2 -1.20001,1.2 -0.66274,0 -1.2,-0.5372 -1.2,-1.2 0,-0.6627 0.53726,-1.2 1.2,-1.2 0.66275,0 1.20001,0.5373 1.20001,1.2 z"/><circle style="fill:red;stroke:red;stroke-width:0" id="circle672" cx="277.031" cy="1092.469" r="1.2" d="m 278.23125,1092.4694 c 0,0.6627 -0.53726,1.2 -1.2,1.2 -0.66274,0 -1.2,-0.5373 -1.2,-1.2 0,-0.6628 0.53726,-1.2 1.2,-1.2 0.66274,0 1.2,0.5372 1.2,1.2 z"/><circle style="fill:red;stroke:red;stroke-width:0" id="circle674" cx="279.141" cy="1145.332" r="1.2" d="m 280.34063,1145.3315 c 0,0.6628 -0.53726,1.2 -1.20001,1.2 -0.66274,0 -1.2,-0.5372 -1.2,-1.2 0,-0.6627 0.53726,-1.2 1.2,-1.2 0.66275,0 1.20001,0.5373 1.20001,1.2 z"/><circle style="fill:red;stroke:red;stroke-width:0" id="circle676" cx="281.25" cy="1144.045" r="1.2" d="m 282.45,1144.0453 c 0,0.6627 -0.53726,1.2 -1.2,1.2 -0.66274,0 -1.2,-0.5373 -1.2,-1.2 0,-0.6628 0.53726,-1.2 1.2,-1.2 0.66274,0 1.2,0.5372 1.2,1.2 z"/><circle style="fill:red;stroke:red;stroke-width:0" id="circle678" cx="283.359" cy="1132.748" r="1.2" d="m 284.55938,1132.7477 c 0,0.6627 -0.53726,1.2 -1.20001,1.2 -0.66274,0 -1.2,-0.5373 -1.2,-1.2 0,-0.6628 0.53726,-1.2 1.2,-1.2 0.66275,0 1.20001,0.5372 1.20001,1.2 z"/><circle style="fill:red;stroke:red;stroke-width:0" id="circle680" cx="285.469" cy="1111.336" r="1.2" d="m 286.66875,1111.3357 c 0,0.6627 -0.53726,1.2 -1.2,1.2 -0.66274,0 -1.2,-0.5373 -1.2,-1.2 0,-0.6627 0.53726,-1.2 1.2,-1.2 0.66274,0 1.2,0.5373 1.2,1.2 z"/><circle style="fill:red;stroke:red;stroke-width:0" id="circle682" cx="287.578" cy="1118.493" r="1.2" d="m 288.77813,1118.4926 c 0,0.6627 -0.53726,1.2 -1.20001,1.2 -0.66274,0 -1.2,-0.5373 -1.2,-1.2 0,-0.6628 0.53726,-1.2 1.2,-1.2 0.66275,0 1.20001,0.5372 1.20001,1.2 z"/><circle style="fill:red;stroke:red;stroke-width:0" id="circle684" cx="289.688" cy="1037.813" r="1.2" d="m 290.8875,1037.8126 c 0,0.6628 -0.53726,1.2 -1.2,1.2 -0.66274,0 -1.2,-0.5372 -1.2,-1.2 0,-0.6627 0.53726,-1.2 1.2,-1.2 0.66274,0 1.2,0.5373 1.2,1.2 z"/><circle style="fill:red;stroke:red;stroke-width:0" id="circle686" cx="291.797" cy="1047.682" r="1.2" d="m 292.99688,1047.682 c 0,0.6627 -0.53726,1.2 -1.20001,1.2 -0.66274,0 -1.2,-0.5373 -1.2,-1.2 0,-0.6627 0.53726,-1.2 1.2,-1.2 0.66275,0 1.20001,0.5373 1.20001,1.2 z"/><circle style="fill:red;stroke:red;stroke-width:0" id="circle688" cx="293.906" cy="1050.356" r="1.2" d="m 295.10625,1050.356 c 0,0.6627 -0.53726,1.2 -1.2,1.2 -0.66274,0 -1.2,-0.5373 -1.2,-1.2 0,-0.6628 0.53726,-1.2 1.2,-1.2 0.66274,0 1.2,0.5372 1.2,1.2 z"/><circle style="fill:red;stroke:red;stroke-width:0" id="circle690" cx="296.016" cy="976.167" r="1.2" d="m 297.21563,976.16663 c 0,0.66274 -0.53726,1.2 -1.20001,1.2 -0.66274,0 -1.2,-0.53726 -1.2,-1.2 0,-0.66275 0.53726,-1.2 1.2,-1.2 0.66275,0 1.20001,0.53725 1.20001,1.2 z"/><circle style="fill:red;stroke:red;stroke-width:0" id="circle692" cx="298.125" cy="1102.438" r="1.2" d="m 299.325,1102.4379 c 0,0.6627 -0.53726,1.2 -1.2,1.2 -0.66274,0 -1.2,-0.5373 -1.2,-1.2 0,-0.6628 0.53726,-1.2 1.2,-1.2 0.66274,0 1.2,0.5372 1.2,1.2 z"/><circle style="fill:red;stroke:red;stroke-width:0" id="circle694" cx="300.234" cy="1083.722" r="1.2" d="m 301.43438,1083.7222 c 0,0.6627 -0.53726,1.2 -1.20001,1.2 -0.66274,0 -1.2,-0.5373 -1.2,-1.2 0,-0.6628 0.53726,-1.2 1.2,-1.2 0.66275,0 1.20001,0.5372 1.20001,1.2 z"/><circle style="fill:red;stroke:red;stroke-width:0" id="circle696" cx="302.344" cy="1124.345" r="1.2" d="m 303.54375,1124.3452 c 0,0.6628 -0.53726,1.2 -1.2,1.2 -0.66274,0 -1.2,-0.5372 -1.2,-1.2 0,-0.6627 0.53726,-1.2 1.2,-1.2 0.66274,0 1.2,0.5373 1.2,1.2 z"/><circle style="fill:red;stroke:red;stroke-width:0" id="circle698" cx="304.453" cy="1135.935" r="1.2" d="m 305.65313,1135.9352 c 0,0.6627 -0.53726,1.2 -1.20001,1.2 -0.66274,0 -1.2,-0.5373 -1.2,-1.2 0,-0.6628 0.53726,-1.2 1.2,-1.2 0.66275,0 1.20001,0.5372 1.20001,1.2 z"/><circle style="fill:red;stroke:red;stroke-width:0" id="circle700" cx="306.563" cy="1131.068" r="1.2" d="m 307.7625,1131.0679 c 0,0.6627 -0.53726,1.2 -1.2,1.2 -0.66274,0 -1.2,-0.5373 -1.2,-1.2 0,-0.6628 0.53726,-1.2 1.2,-1.2 0.66274,0 1.2,0.5372 1.2,1.2 z"/><circle style="fill:red;stroke:red;stroke-width:0" id="circle702" cx="308.672" cy="1014.544" r="1.2" d="m 309.87188,1014.5441 c 0,0.6628 -0.53726,1.2 -1.20001,1.2 -0.66274,0 -1.2,-0.5372 -1.2,-1.2 0,-0.6627 0.53726,-1.2 1.2,-1.2 0.66275,0 1.20001,0.5373 1.20001,1.2 z"/><circle style="fill:red;stroke:red;stroke-width:0" id="circle704" cx="310.781" cy="1139.208" r="1.2" d="m 311.98125,1139.2081 c 0,0.6628 -0.53726,1.2 -1.2,1.2 -0.66274,0 -1.2,-0.5372 -1.2,-1.2 0,-0.6627 0.53726,-1.2 1.2,-1.2 0.66274,0 1.2,0.5373 1.2,1.2 z"/><circle style="fill:red;stroke:red;stroke-width:0" id="circle706" cx="312.891" cy="1011.859" r="1.2" d="m 314.09063,1011.8594 c 0,0.6627 -0.53726,1.2 -1.20001,1.2 -0.66274,0 -1.2,-0.5373 -1.2,-1.2 0,-0.6628 0.53726,-1.2 1.2,-1.2 0.66275,0 1.20001,0.5372 1.20001,1.2 z"/><circle style="fill:red;stroke:red;stroke-width:0" id="circle708" cx="315" cy="1142.954" r="1.2" d="m 316.2,1142.9536 c 0,0.6628 -0.53726,1.2 -1.2,1.2 -0.66274,0 -1.2,-0.5372 -1.2,-1.2 0,-0.6627 0.53726,-1.2 1.2,-1.2 0.66274,0 1.2,0.5373 1.2,1.2 z"/><circle style="fill:red;stroke:red;stroke-width:0" id="circle710" cx="317.109" cy="1112.83" r="1.2" d="m 318.30938,1112.8296 c 0,0.6627 -0.53726,1.2 -1.20001,1.2 -0.66274,0 -1.2,-0.5373 -1.2,-1.2 0,-0.6628 0.53726,-1.2 1.2,-1.2 0.66275,0 1.20001,0.5372 1.20001,1.2 z"/><circle style="fill:red;stroke:red;stroke-width:0" id="circle712" cx="319.219" cy="1047.234" r="1.2" d="m 320.41875,1047.2341 c 0,0.6628 -0.53726,1.2 -1.2,1.2 -0.66274,0 -1.2,-0.5372 -1.2,-1.2 0,-0.6627 0.53726,-1.2 1.2,-1.2 0.66274,0 1.2,0.5373 1.2,1.2 z"/><circle style="fill:red;stroke:red;stroke-width:0" id="circle714" cx="321.328" cy="1135.27" r="1.2" d="m 322.52813,1135.27 c 0,0.6628 -0.53726,1.2 -1.20001,1.2 -0.66274,0 -1.2,-0.5372 -1.2,-1.2 0,-0.6627 0.53726,-1.2 1.2,-1.2 0.66275,0 1.20001,0.5373 1.20001,1.2 z"/><circle style="fill:red;stroke:red;stroke-width:0" id="circle716" cx="323.438" cy="1126.375" r="1.2" d="m 324.6375,1126.3748 c 0,0.6627 -0.53726,1.2 -1.2,1.2 -0.66274,0 -1.2,-0.5373 -1.2,-1.2 0,-0.6628 0.53726,-1.2 1.2,-1.2 0.66274,0 1.2,0.5372 1.2,1.2 z"/><circle style="fill:red;stroke:red;stroke-width:0" id="circle718" cx="325.547" cy="1046.151" r="1.2" d="m 326.74688,1046.1508 c 0,0.6627 -0.53726,1.2 -1.20001,1.2 -0.66274,0 -1.2,-0.5373 -1.2,-1.2 0,-0.6628 0.53726,-1.2 1.2,-1.2 0.66275,0 1.20001,0.5372 1.20001,1.2 z"/><circle style="fill:red;stroke:red;stroke-width:0" id="circle720" cx="327.656" cy="1107.851" r="1.2" d="m 328.85625,1107.8505 c 0,0.6627 -0.53726,1.2 -1.2,1.2 -0.66274,0 -1.2,-0.5373 -1.2,-1.2 0,-0.6628 0.53726,-1.2 1.2,-1.2 0.66274,0 1.2,0.5372 1.2,1.2 z"/><circle style="fill:red;stroke:red;stroke-width:0" id="circle722" cx="329.766" cy="1100.902" r="1.2" d="m 330.96563,1100.9019 c 0,0.6627 -0.53726,1.2 -1.20001,1.2 -0.66274,0 -1.2,-0.5373 -1.2,-1.2 0,-0.6628 0.53726,-1.2 1.2,-1.2 0.66275,0 1.20001,0.5372 1.20001,1.2 z"/><circle style="fill:red;stroke:red;stroke-width:0" id="circle724" cx="331.875" cy="1092.445" r="1.2" d="m 333.075,1092.4453 c 0,0.6628 -0.53726,1.2 -1.2,1.2 -0.66274,0 -1.2,-0.5372 -1.2,-1.2 0,-0.6627 0.53726,-1.2 1.2,-1.2 0.66274,0 1.2,0.5373 1.2,1.2 z"/><circle style="fill:red;stroke:red;stroke-width:0" id="circle726" cx="333.984" cy="1097.539" r="1.2" d="m 335.18438,1097.5387 c 0,0.6627 -0.53726,1.2 -1.20001,1.2 -0.66274,0 -1.2,-0.5373 -1.2,-1.2 0,-0.6627 0.53726,-1.2 1.2,-1.2 0.66275,0 1.20001,0.5373 1.20001,1.2 z"/><circle style="fill:red;stroke:red;stroke-width:0" id="circle728" cx="336.094" cy="1129.17" r="1.2" d="m 337.29375,1129.1698 c 0,0.6627 -0.53726,1.2 -1.2,1.2 -0.66274,0 -1.2,-0.5373 -1.2,-1.2 0,-0.6627 0.53726,-1.2 1.2,-1.2 0.66274,0 1.2,0.5373 1.2,1.2 z"/><circle style="fill:red;stroke:red;stroke-width:0" id="circle730" cx="338.203" cy="1052.444" r="1.2" d="m 339.40313,1052.4435 c 0,0.6627 -0.53726,1.2 -1.20001,1.2 -0.66274,0 -1.2,-0.5373 -1.2,-1.2 0,-0.6628 0.53726,-1.2 1.2,-1.2 0.66275,0 1.20001,0.5372 1.20001,1.2 z"/><circle style="fill:red;stroke:red;stroke-width:0" id="circle732" cx="340.313" cy="1118.489" r="1.2" d="m 341.5125,1118.4894 c 0,0.6627 -0.53726,1.2 -1.2,1.2 -0.66274,0 -1.2,-0.5373 -1.2,-1.2 0,-0.6628 0.53726,-1.2 1.2,-1.2 0.66274,0 1.2,0.5372 1.2,1.2 z"/><circle style="fill:red;stroke:red;stroke-width:0" id="circle734" cx="342.422" cy="966.901" r="1.2" d="m 343.62188,966.90112 c 0,0.66274 -0.53726,1.2 -1.20001,1.2 -0.66274,0 -1.2,-0.53726 -1.2,-1.2 0,-0.66274 0.53726,-1.2 1.2,-1.2 0.66275,0 1.20001,0.53726 1.20001,1.2 z"/><circle style="fill:red;stroke:red;stroke-width:0" id="circle736" cx="344.531" cy="1124.893" r="1.2" d="m 345.73125,1124.8927 c 0,0.6627 -0.53726,1.2 -1.2,1.2 -0.66274,0 -1.2,-0.5373 -1.2,-1.2 0,-0.6627 0.53726,-1.2 1.2,-1.2 0.66274,0 1.2,0.5373 1.2,1.2 z"/><circle style="fill:red;stroke:red;stroke-width:0" id="circle738" cx="346.641" cy="1083.955" r="1.2" d="m 347.84063,1083.9551 c 0,0.6627 -0.53726,1.2 -1.20001,1.2 -0.66274,0 -1.2,-0.5373 -1.2,-1.2 0,-0.6628 0.53726,-1.2 1.2,-1.2 0.66275,0 1.20001,0.5372 1.20001,1.2 z"/><circle style="fill:red;stroke:red;stroke-width:0" id="circle740" cx="348.75" cy="1081.622" r="1.2" d="m 349.95,1081.6217 c 0,0.6627 -0.53726,1.2 -1.2,1.2 -0.66274,0 -1.2,-0.5373 -1.2,-1.2 0,-0.6627 0.53726,-1.2 1.2,-1.2 0.66274,0 1.2,0.5373 1.2,1.2 z"/><circle style="fill:red;stroke:red;stroke-width:0" id="circle742" cx="350.859" cy="1097.905" r="1.2" d="m 352.05938,1097.9049 c 0,0.6627 -0.53726,1.2 -1.20001,1.2 -0.66274,0 -1.2,-0.5373 -1.2,-1.2 0,-0.6627 0.53726,-1.2 1.2,-1.2 0.66275,0 1.20001,0.5373 1.20001,1.2 z"/><circle style="fill:red;stroke:red;stroke-width:0" id="circle744" cx="352.969" cy="1117.019" r="1.2" d="m 354.16875,1117.0187 c 0,0.6627 -0.53726,1.2 -1.2,1.2 -0.66274,0 -1.2,-0.5373 -1.2,-1.2 0,-0.6628 0.53726,-1.2 1.2,-1.2 0.66274,0 1.2,0.5372 1.2,1.2 z"/><circle style="fill:red;stroke:red;stroke-width:0" id="circle746" cx="355.078" cy="1140.964" r="1.2" d="m 356.27813,1140.9639 c 0,0.6627 -0.53726,1.2 -1.20001,1.2 -0.66274,0 -1.2,-0.5373 -1.2,-1.2 0,-0.6628 0.53726,-1.2 1.2,-1.2 0.66275,0 1.20001,0.5372 1.20001,1.2 z"/><circle style="fill:red;stroke:red;stroke-width:0" id="circle748" cx="357.188" cy="1140.215" r="1.2" d="m 358.3875,1140.2152 c 0,0.6628 -0.53726,1.2 -1.2,1.2 -0.66274,0 -1.2,-0.5372 -1.2,-1.2 0,-0.6627 0.53726,-1.2 1.2,-1.2 0.66274,0 1.2,0.5373 1.2,1.2 z"/><circle style="fill:red;stroke:red;stroke-width:0" id="circle750" cx="359.297" cy="1145.513" r="1.2" d="m 360.49688,1145.5127 c 0,0.6627 -0.53726,1.2 -1.20001,1.2 -0.66274,0 -1.2,-0.5373 -1.2,-1.2 0,-0.6627 0.53726,-1.2 1.2,-1.2 0.66275,0 1.20001,0.5373 1.20001,1.2 z"/><circle style="fill:red;stroke:red;stroke-width:0" id="circle752" cx="361.406" cy="1121.586" r="1.2" d="m 362.60625,1121.5865 c 0,0.6628 -0.53726,1.2 -1.2,1.2 -0.66274,0 -1.2,-0.5372 -1.2,-1.2 0,-0.6627 0.53726,-1.2 1.2,-1.2 0.66274,0 1.2,0.5373 1.2,1.2 z"/><circle style="fill:red;stroke:red;stroke-width:0" id="circle754" cx="363.516" cy="1138.479" r="1.2" d="m 364.71563,1138.4792 c 0,0.6628 -0.53726,1.2 -1.20001,1.2 -0.66274,0 -1.2,-0.5372 -1.2,-1.2 0,-0.6627 0.53726,-1.2 1.2,-1.2 0.66275,0 1.20001,0.5373 1.20001,1.2 z"/><circle style="fill:red;stroke:red;stroke-width:0" id="circle756" cx="365.625" cy="1134.647" r="1.2" d="m 366.825,1134.6466 c 0,0.6627 -0.53726,1.2 -1.2,1.2 -0.66274,0 -1.2,-0.5373 -1.2,-1.2 0,-0.6627 0.53726,-1.2 1.2,-1.2 0.66274,0 1.2,0.5373 1.2,1.2 z"/><circle style="fill:red;stroke:red;stroke-width:0" id="circle758" cx="367.734" cy="1072.294" r="1.2" d="m 368.93438,1072.2936 c 0,0.6627 -0.53726,1.2 -1.20001,1.2 -0.66274,0 -1.2,-0.5373 -1.2,-1.2 0,-0.6628 0.53726,-1.2 1.2,-1.2 0.66275,0 1.20001,0.5372 1.20001,1.2 z"/><circle style="fill:red;stroke:red;stroke-width:0" id="circle760" cx="369.844" cy="1117.358" r="1.2" d="m 371.04375,1117.3584 c 0,0.6627 -0.53726,1.2 -1.2,1.2 -0.66274,0 -1.2,-0.5373 -1.2,-1.2 0,-0.6627 0.53726,-1.2 1.2,-1.2 0.66274,0 1.2,0.5373 1.2,1.2 z"/><circle style="fill:red;stroke:red;stroke-width:0" id="circle762" cx="371.953" cy="1025.126" r="1.2" d="m 373.15313,1025.1257 c 0,0.6628 -0.53726,1.2 -1.20001,1.2 -0.66274,0 -1.2,-0.5372 -1.2,-1.2 0,-0.6627 0.53726,-1.2 1.2,-1.2 0.66275,0 1.20001,0.5373 1.20001,1.2 z"/><circle style="fill:red;stroke:red;stroke-width:0" id="circle764" cx="374.063" cy="1054.325" r="1.2" d="m 375.2625,1054.325 c 0,0.6627 -0.53726,1.2 -1.2,1.2 -0.66274,0 -1.2,-0.5373 -1.2,-1.2 0,-0.6628 0.53726,-1.2 1.2,-1.2 0.66274,0 1.2,0.5372 1.2,1.2 z"/><circle style="fill:red;stroke:red;stroke-width:0" id="circle766" cx="376.172" cy="1138.302" r="1.2" d="m 377.37188,1138.3018 c 0,0.6627 -0.53726,1.2 -1.20001,1.2 -0.66274,0 -1.2,-0.5373 -1.2,-1.2 0,-0.6628 0.53726,-1.2 1.2,-1.2 0.66275,0 1.20001,0.5372 1.20001,1.2 z"/><circle style="fill:red;stroke:red;stroke-width:0" id="circle768" cx="378.281" cy="1115.473" r="1.2" d="m 379.48125,1115.4728 c 0,0.6627 -0.53726,1.2 -1.2,1.2 -0.66274,0 -1.2,-0.5373 -1.2,-1.2 0,-0.6628 0.53726,-1.2 1.2,-1.2 0.66274,0 1.2,0.5372 1.2,1.2 z"/><circle style="fill:red;stroke:red;stroke-width:0" id="circle770" cx="380.391" cy="1112.566" r="1.2" d="m 381.59063,1112.5663 c 0,0.6627 -0.53726,1.2 -1.20001,1.2 -0.66274,0 -1.2,-0.5373 -1.2,-1.2 0,-0.6628 0.53726,-1.2 1.2,-1.2 0.66275,0 1.20001,0.5372 1.20001,1.2 z"/><circle style="fill:red;stroke:red;stroke-width:0" id="circle772" cx="382.5" cy="1134.911" r="1.2" d="m 383.7,1134.9115 c 0,0.6627 -0.53726,1.2 -1.2,1.2 -0.66274,0 -1.2,-0.5373 -1.2,-1.2 0,-0.6627 0.53726,-1.2 1.2,-1.2 0.66274,0 1.2,0.5373 1.2,1.2 z"/><circle style="fill:red;stroke:red;stroke-width:0" id="circle774" cx="384.609" cy="1147.868" r="1.2" d="m 385.80938,1147.8682 c 0,0.6627 -0.53726,1.2 -1.20001,1.2 -0.66274,0 -1.2,-0.5373 -1.2,-1.2 0,-0.6628 0.53726,-1.2 1.2,-1.2 0.66275,0 1.20001,0.5372 1.20001,1.2 z"/><circle style="fill:red;stroke:red;stroke-width:0" id="circle776" cx="386.719" cy="1052.111" r="1.2" d="m 387.91875,1052.111 c 0,0.6627 -0.53726,1.2 -1.2,1.2 -0.66274,0 -1.2,-0.5373 -1.2,-1.2 0,-0.6628 0.53726,-1.2 1.2,-1.2 0.66274,0 1.2,0.5372 1.2,1.2 z"/><circle style="fill:red;stroke:red;stroke-width:0" id="circle778" cx="388.828" cy="960.971" r="1.2" d="m 390.02813,960.97058 c 0,0.66274 -0.53726,1.2 -1.20001,1.2 -0.66274,0 -1.2,-0.53726 -1.2,-1.2 0,-0.66274 0.53726,-1.2 1.2,-1.2 0.66275,0 1.20001,0.53726 1.20001,1.2 z"/><circle style="fill:red;stroke:red;stroke-width:0" id="circle780" cx="390.938" cy="1122.129" r="1.2" d="m 392.1375,1122.1288 c 0,0.6627 -0.53726,1.2 -1.2,1.2 -0.66274,0 -1.2,-0.5373 -1.2,-1.2 0,-0.6628 0.53726,-1.2 1.2,-1.2 0.66274,0 1.2,0.5372 1.2,1.2 z"/><circle style="fill:red;stroke:red;stroke-width:0" id="circle782" cx="393.047" cy="991.798" r="1.2" d="m 394.24688,991.7981 c 0,0.66274 -0.53726,1.2 -1.20001,1.2 -0.66274,0 -1.2,-0.53726 -1.2,-1.2 0,-0.66275 0.53726,-1.2 1.2,-1.2 0.66275,0 1.20001,0.53725 1.20001,1.2 z"/><circle style="fill:red;stroke:red;stroke-width:0" id="circle784" cx="395.156" cy="1142.087" r="1.2" d="m 396.35625,1142.087 c 0,0.6628 -0.53726,1.2 -1.2,1.2 -0.66274,0 -1.2,-0.5372 -1.2,-1.2 0,-0.6627 0.53726,-1.2 1.2,-1.2 0.66274,0 1.2,0.5373 1.2,1.2 z"/><circle style="fill:red;stroke:red;stroke-width:0" id="circle786" cx="397.266" cy="1080.322" r="1.2" d="m 398.46563,1080.3221 c 0,0.6628 -0.53726,1.2 -1.20001,1.2 -0.66274,0 -1.2,-0.5372 -1.2,-1.2 0,-0.6627 0.53726,-1.2 1.2,-1.2 0.66275,0 1.20001,0.5373 1.20001,1.2 z"/><circle style="fill:red;stroke:red;stroke-width:0" id="circle788" cx="399.375" cy="1143.479" r="1.2" d="m 400.575,1143.4789 c 0,0.6627 -0.53726,1.2 -1.2,1.2 -0.66274,0 -1.2,-0.5373 -1.2,-1.2 0,-0.6628 0.53726,-1.2 1.2,-1.2 0.66274,0 1.2,0.5372 1.2,1.2 z"/><circle style="fill:red;stroke:red;stroke-width:0" id="circle790" cx="401.484" cy="1104.211" r="1.2" d="m 402.68438,1104.2108 c 0,0.6628 -0.53726,1.2 -1.20001,1.2 -0.66274,0 -1.2,-0.5372 -1.2,-1.2 0,-0.6627 0.53726,-1.2 1.2,-1.2 0.66275,0 1.20001,0.5373 1.20001,1.2 z"/><circle style="fill:red;stroke:red;stroke-width:0" id="circle792" cx="403.594" cy="1085.461" r="1.2" d="m 404.79375,1085.4615 c 0,0.6628 -0.53726,1.2 -1.2,1.2 -0.66274,0 -1.2,-0.5372 -1.2,-1.2 0,-0.6627 0.53726,-1.2 1.2,-1.2 0.66274,0 1.2,0.5373 1.2,1.2 z"/><circle style="fill:red;stroke:red;stroke-width:0" id="circle794" cx="405.703" cy="1121.237" r="1.2" d="m 406.90313,1121.2371 c 0,0.6627 -0.53726,1.2 -1.20001,1.2 -0.66274,0 -1.2,-0.5373 -1.2,-1.2 0,-0.6628 0.53726,-1.2 1.2,-1.2 0.66275,0 1.20001,0.5372 1.20001,1.2 z"/><circle style="fill:red;stroke:red;stroke-width:0" id="circle796" cx="407.813" cy="1127.902" r="1.2" d="m 409.0125,1127.9025 c 0,0.6627 -0.53726,1.2 -1.2,1.2 -0.66274,0 -1.2,-0.5373 -1.2,-1.2 0,-0.6628 0.53726,-1.2 1.2,-1.2 0.66274,0 1.2,0.5372 1.2,1.2 z"/><circle style="fill:red;stroke:red;stroke-width:0" id="circle798" cx="409.922" cy="1084.113" r="1.2" d="m 411.12188,1084.1127 c 0,0.6627 -0.53726,1.2 -1.20001,1.2 -0.66274,0 -1.2,-0.5373 -1.2,-1.2 0,-0.6628 0.53726,-1.2 1.2,-1.2 0.66275,0 1.20001,0.5372 1.20001,1.2 z"/><circle style="fill:red;stroke:red;stroke-width:0" id="circle800" cx="412.031" cy="1124.293" r="1.2" d="m 413.23125,1124.2926 c 0,0.6627 -0.53726,1.2 -1.2,1.2 -0.66274,0 -1.2,-0.5373 -1.2,-1.2 0,-0.6627 0.53726,-1.2 1.2,-1.2 0.66274,0 1.2,0.5373 1.2,1.2 z"/><circle style="fill:red;stroke:red;stroke-width:0" id="circle802" cx="414.141" cy="1082.448" r="1.2" d="m 415.34063,1082.4481 c 0,0.6628 -0.53726,1.2 -1.20001,1.2 -0.66274,0 -1.2,-0.5372 -1.2,-1.2 0,-0.6627 0.53726,-1.2 1.2,-1.2 0.66275,0 1.20001,0.5373 1.20001,1.2 z"/><circle style="fill:red;stroke:red;stroke-width:0" id="circle804" cx="416.25" cy="1143.425" r="1.2" d="m 417.45,1143.4253 c 0,0.6627 -0.53726,1.2 -1.2,1.2 -0.66274,0 -1.2,-0.5373 -1.2,-1.2 0,-0.6627 0.53726,-1.2 1.2,-1.2 0.66274,0 1.2,0.5373 1.2,1.2 z"/><circle style="fill:red;stroke:red;stroke-width:0" id="circle806" cx="418.359" cy="1092.334" r="1.2" d="m 419.55938,1092.3336 c 0,0.6628 -0.53726,1.2 -1.20001,1.2 -0.66274,0 -1.2,-0.5372 -1.2,-1.2 0,-0.6627 0.53726,-1.2 1.2,-1.2 0.66275,0 1.20001,0.5373 1.20001,1.2 z"/><circle style="fill:red;stroke:red;stroke-width:0" id="circle808" cx="420.469" cy="1084.848" r="1.2" d="m 421.66875,1084.8475 c 0,0.6628 -0.53726,1.2 -1.2,1.2 -0.66274,0 -1.2,-0.5372 -1.2,-1.2 0,-0.6627 0.53726,-1.2 1.2,-1.2 0.66274,0 1.2,0.5373 1.2,1.2 z"/><circle style="fill:red;stroke:red;stroke-width:0" id="circle810" cx="422.578" cy="1051.897" r="1.2" d="m 423.77813,1051.8965 c 0,0.6627 -0.53726,1.2 -1.20001,1.2 -0.66274,0 -1.2,-0.5373 -1.2,-1.2 0,-0.6628 0.53726,-1.2 1.2,-1.2 0.66275,0 1.20001,0.5372 1.20001,1.2 z"/><circle style="fill:red;stroke:red;stroke-width:0" id="circle812" cx="424.688" cy="1086.725" r="1.2" d="m 425.8875,1086.7249 c 0,0.6627 -0.53726,1.2 -1.2,1.2 -0.66274,0 -1.2,-0.5373 -1.2,-1.2 0,-0.6628 0.53726,-1.2 1.2,-1.2 0.66274,0 1.2,0.5372 1.2,1.2 z"/><circle style="fill:red;stroke:red;stroke-width:0" id="circle814" cx="426.797" cy="1130.426" r="1.2" d="m 427.99688,1130.4255 c 0,0.6628 -0.53726,1.2 -1.20001,1.2 -0.66274,0 -1.2,-0.5372 -1.2,-1.2 0,-0.6627 0.53726,-1.2 1.2,-1.2 0.66275,0 1.20001,0.5373 1.20001,1.2 z"/><circle style="fill:red;stroke:red;stroke-width:0" id="circle816" cx="428.906" cy="1137.913" r="1.2" d="m 430.10625,1137.9132 c 0,0.6627 -0.53726,1.2 -1.2,1.2 -0.66274,0 -1.2,-0.5373 -1.2,-1.2 0,-0.6627 0.53726,-1.2 1.2,-1.2 0.66274,0 1.2,0.5373 1.2,1.2 z"/><circle style="fill:red;stroke:red;stroke-width:0" id="circle818" cx="431.016" cy="1116.182" r="1.2" d="m 432.21563,1116.1825 c 0,0.6627 -0.53726,1.2 -1.20001,1.2 -0.66274,0 -1.2,-0.5373 -1.2,-1.2 0,-0.6627 0.53726,-1.2 1.2,-1.2 0.66275,0 1.20001,0.5373 1.20001,1.2 z"/><circle style="fill:red;stroke:red;stroke-width:0" id="circle820" cx="433.125" cy="1119.88" r="1.2" d="m 434.325,1119.8805 c 0,0.6627 -0.53726,1.2 -1.2,1.2 -0.66274,0 -1.2,-0.5373 -1.2,-1.2 0,-0.6627 0.53726,-1.2 1.2,-1.2 0.66274,0 1.2,0.5373 1.2,1.2 z"/><circle style="fill:red;stroke:red;stroke-width:0" id="circle822" cx="435.234" cy="1117.114" r="1.2" d="m 436.43438,1117.1143 c 0,0.6627 -0.53726,1.2 -1.20001,1.2 -0.66274,0 -1.2,-0.5373 -1.2,-1.2 0,-0.6628 0.53726,-1.2 1.2,-1.2 0.66275,0 1.20001,0.5372 1.20001,1.2 z"/><circle style="fill:red;stroke:red;stroke-width:0" id="circle824" cx="437.344" cy="1015.452" r="1.2" d="m 438.54375,1015.4518 c 0,0.6627 -0.53726,1.2 -1.2,1.2 -0.66274,0 -1.2,-0.5373 -1.2,-1.2 0,-0.6628 0.53726,-1.2 1.2,-1.2 0.66274,0 1.2,0.5372 1.2,1.2 z"/><circle style="fill:red;stroke:red;stroke-width:0" id="circle826" cx="439.453" cy="1131.67" r="1.2" d="m 440.65313,1131.6698 c 0,0.6627 -0.53726,1.2 -1.20001,1.2 -0.66274,0 -1.2,-0.5373 -1.2,-1.2 0,-0.6627 0.53726,-1.2 1.2,-1.2 0.66275,0 1.20001,0.5373 1.20001,1.2 z"/><circle style="fill:red;stroke:red;stroke-width:0" id="circle828" cx="441.563" cy="1082.402" r="1.2" d="m 442.7625,1082.4021 c 0,0.6627 -0.53726,1.2 -1.2,1.2 -0.66274,0 -1.2,-0.5373 -1.2,-1.2 0,-0.6627 0.53726,-1.2 1.2,-1.2 0.66274,0 1.2,0.5373 1.2,1.2 z"/><circle style="fill:red;stroke:red;stroke-width:0" id="circle830" cx="443.672" cy="1123.065" r="1.2" d="m 444.87188,1123.0649 c 0,0.6628 -0.53726,1.2 -1.20001,1.2 -0.66274,0 -1.2,-0.5372 -1.2,-1.2 0,-0.6627 0.53726,-1.2 1.2,-1.2 0.66275,0 1.20001,0.5373 1.20001,1.2 z"/><circle style="fill:red;stroke:red;stroke-width:0" id="circle832" cx="445.781" cy="1078.578" r="1.2" d="m 446.98125,1078.5779 c 0,0.6627 -0.53726,1.2 -1.2,1.2 -0.66274,0 -1.2,-0.5373 -1.2,-1.2 0,-0.6628 0.53726,-1.2 1.2,-1.2 0.66274,0 1.2,0.5372 1.2,1.2 z"/><circle style="fill:red;stroke:red;stroke-width:0" id="circle834" cx="447.891" cy="1065.791" r="1.2" d="m 449.09063,1065.7908 c 0,0.6627 -0.53726,1.2 -1.20001,1.2 -0.66274,0 -1.2,-0.5373 -1.2,-1.2 0,-0.6628 0.53726,-1.2 1.2,-1.2 0.66275,0 1.20001,0.5372 1.20001,1.2 z"/><circle style="fill:red;stroke:red;stroke-width:0" id="circle836" cx="450" cy="1100.244" r="1.2" d="m 451.2,1100.2437 c 0,0.6627 -0.53726,1.2 -1.2,1.2 -0.66274,0 -1.2,-0.5373 -1.2,-1.2 0,-0.6628 0.53726,-1.2 1.2,-1.2 0.66274,0 1.2,0.5372 1.2,1.2 z"/><circle style="fill:red;stroke:red;stroke-width:0" id="circle838" cx="452.109" cy="1036.601" r="1.2" d="m 453.30938,1036.6013 c 0,0.6628 -0.53726,1.2 -1.20001,1.2 -0.66274,0 -1.2,-0.5372 -1.2,-1.2 0,-0.6627 0.53726,-1.2 1.2,-1.2 0.66275,0 1.20001,0.5373 1.20001,1.2 z"/><circle style="fill:red;stroke:red;stroke-width:0" id="circle840" cx="454.219" cy="1139.01" r="1.2" d="m 455.41875,1139.0103 c 0,0.6627 -0.53726,1.2 -1.2,1.2 -0.66274,0 -1.2,-0.5373 -1.2,-1.2 0,-0.6628 0.53726,-1.2 1.2,-1.2 0.66274,0 1.2,0.5372 1.2,1.2 z"/><circle style="fill:red;stroke:red;stroke-width:0" id="circle842" cx="456.328" cy="1135.419" r="1.2" d="m 457.52813,1135.4187 c 0,0.6627 -0.53726,1.2 -1.20001,1.2 -0.66274,0 -1.2,-0.5373 -1.2,-1.2 0,-0.6627 0.53726,-1.2 1.2,-1.2 0.66275,0 1.20001,0.5373 1.20001,1.2 z"/><circle style="fill:red;stroke:red;stroke-width:0" id="circle844" cx="458.438" cy="1088.805" r="1.2" d="m 459.63753,1088.8053 c 0,0.6627 -0.53726,1.2 -1.2,1.2 -0.66274,0 -1.2,-0.5373 -1.2,-1.2 0,-0.6627 0.53726,-1.2 1.2,-1.2 0.66274,0 1.2,0.5373 1.2,1.2 z"/><circle style="fill:red;stroke:red;stroke-width:0" id="circle846" cx="460.547" cy="1073.881" r="1.2" d="m 461.74688,1073.8815 c 0,0.6627 -0.53726,1.2 -1.20001,1.2 -0.66274,0 -1.2,-0.5373 -1.2,-1.2 0,-0.6628 0.53726,-1.2 1.2,-1.2 0.66275,0 1.20001,0.5372 1.20001,1.2 z"/><circle style="fill:red;stroke:red;stroke-width:0" id="circle848" cx="462.656" cy="1134.687" r="1.2" d="m 463.85622,1134.6871 c 0,0.6628 -0.53726,1.2 -1.2,1.2 -0.66274,0 -1.2,-0.5372 -1.2,-1.2 0,-0.6627 0.53726,-1.2 1.2,-1.2 0.66274,0 1.2,0.5373 1.2,1.2 z"/><circle style="fill:red;stroke:red;stroke-width:0" id="circle850" cx="464.766" cy="1145.668" r="1.2" d="m 465.96563,1145.6678 c 0,0.6628 -0.53726,1.2 -1.20001,1.2 -0.66274,0 -1.2,-0.5372 -1.2,-1.2 0,-0.6627 0.53726,-1.2 1.2,-1.2 0.66275,0 1.20001,0.5373 1.20001,1.2 z"/><circle style="fill:red;stroke:red;stroke-width:0" id="circle852" cx="466.875" cy="1070.431" r="1.2" d="m 468.075,1070.4307 c 0,0.6627 -0.53726,1.2 -1.2,1.2 -0.66274,0 -1.2,-0.5373 -1.2,-1.2 0,-0.6628 0.53726,-1.2 1.2,-1.2 0.66274,0 1.2,0.5372 1.2,1.2 z"/><circle style="fill:red;stroke:red;stroke-width:0" id="circle854" cx="468.984" cy="1120.851" r="1.2" d="m 470.18441,1120.8511 c 0,0.6627 -0.53726,1.2 -1.2,1.2 -0.66275,0 -1.2,-0.5373 -1.2,-1.2 0,-0.6628 0.53725,-1.2 1.2,-1.2 0.66274,0 1.2,0.5372 1.2,1.2 z"/><circle style="fill:red;stroke:red;stroke-width:0" id="circle856" cx="471.094" cy="1123.249" r="1.2" d="m 472.29375,1123.2493 c 0,0.6627 -0.53726,1.2 -1.2,1.2 -0.66274,0 -1.2,-0.5373 -1.2,-1.2 0,-0.6628 0.53726,-1.2 1.2,-1.2 0.66274,0 1.2,0.5372 1.2,1.2 z"/><circle style="fill:red;stroke:red;stroke-width:0" id="circle858" cx="473.203" cy="1140.939" r="1.2" d="m 474.40309,1140.9386 c 0,0.6627 -0.53725,1.2 -1.2,1.2 -0.66274,0 -1.2,-0.5373 -1.2,-1.2 0,-0.6627 0.53726,-1.2 1.2,-1.2 0.66275,0 1.2,0.5373 1.2,1.2 z"/><circle style="fill:red;stroke:red;stroke-width:0" id="circle860" cx="475.313" cy="1134.658" r="1.2" d="m 476.5125,1134.6584 c 0,0.6628 -0.53726,1.2 -1.2,1.2 -0.66274,0 -1.2,-0.5372 -1.2,-1.2 0,-0.6627 0.53726,-1.2 1.2,-1.2 0.66274,0 1.2,0.5373 1.2,1.2 z"/><circle style="fill:red;stroke:red;stroke-width:0" id="circle862" cx="477.422" cy="1101.146" r="1.2" d="m 478.62188,1101.1462 c 0,0.6628 -0.53726,1.2 -1.20001,1.2 -0.66274,0 -1.2,-0.5372 -1.2,-1.2 0,-0.6627 0.53726,-1.2 1.2,-1.2 0.66275,0 1.20001,0.5373 1.20001,1.2 z"/><circle style="fill:red;stroke:red;stroke-width:0" id="circle864" cx="479.531" cy="1119.289" r="1.2" d="m 480.73128,1119.2887 c 0,0.6627 -0.53726,1.2 -1.2,1.2 -0.66274,0 -1.2,-0.5373 -1.2,-1.2 0,-0.6627 0.53726,-1.2 1.2,-1.2 0.66274,0 1.2,0.5373 1.2,1.2 z"/><circle style="fill:red;stroke:red;stroke-width:0" id="circle866" cx="481.641" cy="1109.892" r="1.2" d="m 482.84063,1109.8918 c 0,0.6628 -0.53726,1.2 -1.20001,1.2 -0.66274,0 -1.2,-0.5372 -1.2,-1.2 0,-0.6627 0.53726,-1.2 1.2,-1.2 0.66275,0 1.20001,0.5373 1.20001,1.2 z"/><circle style="fill:red;stroke:red;stroke-width:0" id="circle868" cx="483.75" cy="1135.935" r="1.2" d="m 484.94997,1135.9353 c 0,0.6627 -0.53726,1.2 -1.2,1.2 -0.66274,0 -1.2,-0.5373 -1.2,-1.2 0,-0.6627 0.53726,-1.2 1.2,-1.2 0.66274,0 1.2,0.5373 1.2,1.2 z"/><circle style="fill:red;stroke:red;stroke-width:0" id="circle870" cx="485.859" cy="1136.082" r="1.2" d="m 487.05938,1136.0822 c 0,0.6627 -0.53726,1.2 -1.20001,1.2 -0.66274,0 -1.2,-0.5373 -1.2,-1.2 0,-0.6628 0.53726,-1.2 1.2,-1.2 0.66275,0 1.20001,0.5372 1.20001,1.2 z"/><circle style="fill:red;stroke:red;stroke-width:0" id="circle872" cx="487.969" cy="1141.988" r="1.2" d="m 489.16875,1141.9883 c 0,0.6627 -0.53726,1.2 -1.2,1.2 -0.66274,0 -1.2,-0.5373 -1.2,-1.2 0,-0.6628 0.53726,-1.2 1.2,-1.2 0.66274,0 1.2,0.5372 1.2,1.2 z"/><circle style="fill:red;stroke:red;stroke-width:0" id="circle874" cx="490.078" cy="1122.697" r="1.2" d="m 491.27816,1122.6974 c 0,0.6627 -0.53726,1.2 -1.2,1.2 -0.66275,0 -1.2,-0.5373 -1.2,-1.2 0,-0.6628 0.53725,-1.2 1.2,-1.2 0.66274,0 1.2,0.5372 1.2,1.2 z"/><circle style="fill:red;stroke:red;stroke-width:0" id="circle876" cx="492.188" cy="1141.913" r="1.2" d="m 493.3875,1141.9128 c 0,0.6628 -0.53726,1.2 -1.2,1.2 -0.66274,0 -1.2,-0.5372 -1.2,-1.2 0,-0.6627 0.53726,-1.2 1.2,-1.2 0.66274,0 1.2,0.5373 1.2,1.2 z"/><circle style="fill:red;stroke:red;stroke-width:0" id="circle878" cx="494.297" cy="1125.892" r="1.2" d="m 495.49684,1125.8921 c 0,0.6627 -0.53725,1.2 -1.2,1.2 -0.66274,0 -1.2,-0.5373 -1.2,-1.2 0,-0.6628 0.53726,-1.2 1.2,-1.2 0.66275,0 1.2,0.5372 1.2,1.2 z"/><circle style="fill:red;stroke:red;stroke-width:0" id="circle880" cx="496.406" cy="1143.794" r="1.2" d="m 497.60625,1143.7942 c 0,0.6627 -0.53726,1.2 -1.2,1.2 -0.66274,0 -1.2,-0.5373 -1.2,-1.2 0,-0.6628 0.53726,-1.2 1.2,-1.2 0.66274,0 1.2,0.5372 1.2,1.2 z"/><circle style="fill:red;stroke:red;stroke-width:0" id="circle882" cx="498.516" cy="1136.922" r="1.2" d="m 499.71563,1136.9216 c 0,0.6628 -0.53726,1.2 -1.20001,1.2 -0.66274,0 -1.2,-0.5372 -1.2,-1.2 0,-0.6627 0.53726,-1.2 1.2,-1.2 0.66275,0 1.20001,0.5373 1.20001,1.2 z"/><circle style="fill:red;stroke:red;stroke-width:0" id="circle884" cx="500.625" cy="1117.628" r="1.2" d="m 501.82503,1117.6282 c 0,0.6627 -0.53726,1.2 -1.2,1.2 -0.66274,0 -1.2,-0.5373 -1.2,-1.2 0,-0.6628 0.53726,-1.2 1.2,-1.2 0.66274,0 1.2,0.5372 1.2,1.2 z"/><circle style="fill:red;stroke:red;stroke-width:0" id="circle886" cx="502.734" cy="1118.02" r="1.2" d="m 503.93438,1118.0204 c 0,0.6627 -0.53726,1.2 -1.20001,1.2 -0.66274,0 -1.2,-0.5373 -1.2,-1.2 0,-0.6628 0.53726,-1.2 1.2,-1.2 0.66275,0 1.20001,0.5372 1.20001,1.2 z"/><circle style="fill:red;stroke:red;stroke-width:0" id="circle888" cx="504.844" cy="1020.631" r="1.2" d="m 506.04372,1020.631 c 0,0.6627 -0.53726,1.2 -1.2,1.2 -0.66274,0 -1.2,-0.5373 -1.2,-1.2 0,-0.6628 0.53726,-1.2 1.2,-1.2 0.66274,0 1.2,0.5372 1.2,1.2 z"/><circle style="fill:red;stroke:red;stroke-width:0" id="circle890" cx="506.953" cy="1142.841" r="1.2" d="m 508.15313,1142.8414 c 0,0.6628 -0.53726,1.2 -1.20001,1.2 -0.66274,0 -1.2,-0.5372 -1.2,-1.2 0,-0.6627 0.53726,-1.2 1.2,-1.2 0.66275,0 1.20001,0.5373 1.20001,1.2 z"/><circle style="fill:red;stroke:red;stroke-width:0" id="circle892" cx="509.063" cy="1134.849" r="1.2" d="m 510.2625,1134.8485 c 0,0.6628 -0.53726,1.2 -1.2,1.2 -0.66274,0 -1.2,-0.5372 -1.2,-1.2 0,-0.6627 0.53726,-1.2 1.2,-1.2 0.66274,0 1.2,0.5373 1.2,1.2 z"/><circle style="fill:red;stroke:red;stroke-width:0" id="circle894" cx="511.172" cy="1131.313" r="1.2" d="m 512.37191,1131.313 c 0,0.6627 -0.53726,1.2 -1.2,1.2 -0.66275,0 -1.2,-0.5373 -1.2,-1.2 0,-0.6628 0.53725,-1.2 1.2,-1.2 0.66274,0 1.2,0.5372 1.2,1.2 z"/><circle style="fill:red;stroke:red;stroke-width:0" id="circle896" cx="513.281" cy="1077.82" r="1.2" d="m 514.48125,1077.8198 c 0,0.6628 -0.53726,1.2 -1.2,1.2 -0.66274,0 -1.2,-0.5372 -1.2,-1.2 0,-0.6627 0.53726,-1.2 1.2,-1.2 0.66274,0 1.2,0.5373 1.2,1.2 z"/><circle style="fill:red;stroke:red;stroke-width:0" id="circle898" cx="515.391" cy="1042.137" r="1.2" d="m 516.59063,1042.1371 c 0,0.6627 -0.53726,1.2 -1.20001,1.2 -0.66274,0 -1.2,-0.5373 -1.2,-1.2 0,-0.6628 0.53726,-1.2 1.2,-1.2 0.66275,0 1.20001,0.5372 1.20001,1.2 z"/><circle style="fill:red;stroke:red;stroke-width:0" id="circle900" cx="517.5" cy="1133.682" r="1.2" d="m 518.7,1133.6821 c 0,0.6628 -0.53726,1.2 -1.2,1.2 -0.66274,0 -1.2,-0.5372 -1.2,-1.2 0,-0.6627 0.53726,-1.2 1.2,-1.2 0.66274,0 1.2,0.5373 1.2,1.2 z"/><circle style="fill:red;stroke:red;stroke-width:0" id="circle902" cx="519.609" cy="1115.348" r="1.2" d="m 520.80938,1115.3483 c 0,0.6627 -0.53726,1.2 -1.20001,1.2 -0.66274,0 -1.2,-0.5373 -1.2,-1.2 0,-0.6628 0.53726,-1.2 1.2,-1.2 0.66275,0 1.20001,0.5372 1.20001,1.2 z"/><circle style="fill:red;stroke:red;stroke-width:0" id="circle904" cx="521.719" cy="1131.659" r="1.2" d="m 522.91875,1131.6591 c 0,0.6627 -0.53726,1.2 -1.2,1.2 -0.66274,0 -1.2,-0.5373 -1.2,-1.2 0,-0.6628 0.53726,-1.2 1.2,-1.2 0.66274,0 1.2,0.5372 1.2,1.2 z"/><circle style="fill:red;stroke:red;stroke-width:0" id="circle906" cx="523.828" cy="1141.068" r="1.2" d="m 525.02813,1141.0677 c 0,0.6628 -0.53726,1.2 -1.20001,1.2 -0.66274,0 -1.2,-0.5372 -1.2,-1.2 0,-0.6627 0.53726,-1.2 1.2,-1.2 0.66275,0 1.20001,0.5373 1.20001,1.2 z"/><circle style="fill:red;stroke:red;stroke-width:0" id="circle908" cx="525.938" cy="1103.726" r="1.2" d="m 527.1375,1103.7256 c 0,0.6627 -0.53726,1.2 -1.2,1.2 -0.66274,0 -1.2,-0.5373 -1.2,-1.2 0,-0.6628 0.53726,-1.2 1.2,-1.2 0.66274,0 1.2,0.5372 1.2,1.2 z"/><circle style="fill:red;stroke:red;stroke-width:0" id="circle910" cx="528.047" cy="1137.121" r="1.2" d="m 529.24688,1137.1208 c 0,0.6628 -0.53726,1.2 -1.20001,1.2 -0.66274,0 -1.2,-0.5372 -1.2,-1.2 0,-0.6627 0.53726,-1.2 1.2,-1.2 0.66275,0 1.20001,0.5373 1.20001,1.2 z"/><circle style="fill:red;stroke:red;stroke-width:0" id="circle912" cx="530.156" cy="1144.537" r="1.2" d="m 531.35625,1144.5366 c 0,0.6628 -0.53726,1.2 -1.2,1.2 -0.66274,0 -1.2,-0.5372 -1.2,-1.2 0,-0.6627 0.53726,-1.2 1.2,-1.2 0.66274,0 1.2,0.5373 1.2,1.2 z"/><circle style="fill:red;stroke:red;stroke-width:0" id="circle914" cx="532.266" cy="1145.307" r="1.2" d="m 533.46563,1145.3073 c 0,0.6627 -0.53726,1.2 -1.20001,1.2 -0.66274,0 -1.2,-0.5373 -1.2,-1.2 0,-0.6628 0.53726,-1.2 1.2,-1.2 0.66275,0 1.20001,0.5372 1.20001,1.2 z"/><circle style="fill:red;stroke:red;stroke-width:0" id="circle916" cx="534.375" cy="1082.427" r="1.2" d="m 535.575,1082.4265 c 0,0.6628 -0.53726,1.2 -1.2,1.2 -0.66274,0 -1.2,-0.5372 -1.2,-1.2 0,-0.6627 0.53726,-1.2 1.2,-1.2 0.66274,0 1.2,0.5373 1.2,1.2 z"/><circle style="fill:red;stroke:red;stroke-width:0" id="circle918" cx="536.484" cy="1146.466" r="1.2" d="m 537.68438,1146.4655 c 0,0.6627 -0.53726,1.2 -1.20001,1.2 -0.66274,0 -1.2,-0.5373 -1.2,-1.2 0,-0.6628 0.53726,-1.2 1.2,-1.2 0.66275,0 1.20001,0.5372 1.20001,1.2 z"/><circle style="fill:red;stroke:red;stroke-width:0" id="circle920" cx="538.594" cy="1089.229" r="1.2" d="m 539.79375,1089.229 c 0,0.6627 -0.53726,1.2 -1.2,1.2 -0.66274,0 -1.2,-0.5373 -1.2,-1.2 0,-0.6627 0.53726,-1.2 1.2,-1.2 0.66274,0 1.2,0.5373 1.2,1.2 z"/><circle style="fill:red;stroke:red;stroke-width:0" id="circle922" cx="540.703" cy="1104.766" r="1.2" d="m 541.90313,1104.7657 c 0,0.6628 -0.53726,1.2 -1.20001,1.2 -0.66274,0 -1.2,-0.5372 -1.2,-1.2 0,-0.6627 0.53726,-1.2 1.2,-1.2 0.66275,0 1.20001,0.5373 1.20001,1.2 z"/><circle style="fill:red;stroke:red;stroke-width:0" id="circle924" cx="542.813" cy="1138.28" r="1.2" d="m 544.0125,1138.2803 c 0,0.6627 -0.53726,1.2 -1.2,1.2 -0.66274,0 -1.2,-0.5373 -1.2,-1.2 0,-0.6628 0.53726,-1.2 1.2,-1.2 0.66274,0 1.2,0.5372 1.2,1.2 z"/><circle style="fill:red;stroke:red;stroke-width:0" id="circle926" cx="544.922" cy="1098.596" r="1.2" d="m 546.12188,1098.5961 c 0,0.6627 -0.53726,1.2 -1.20001,1.2 -0.66274,0 -1.2,-0.5373 -1.2,-1.2 0,-0.6628 0.53726,-1.2 1.2,-1.2 0.66275,0 1.20001,0.5372 1.20001,1.2 z"/><circle style="fill:red;stroke:red;stroke-width:0" id="circle928" cx="547.031" cy="1143.821" r="1.2" d="m 548.23125,1143.8208 c 0,0.6627 -0.53726,1.2 -1.2,1.2 -0.66274,0 -1.2,-0.5373 -1.2,-1.2 0,-0.6627 0.53726,-1.2 1.2,-1.2 0.66274,0 1.2,0.5373 1.2,1.2 z"/><circle style="fill:red;stroke:red;stroke-width:0" id="circle930" cx="549.141" cy="1009.123" r="1.2" d="m 550.34063,1009.1232 c 0,0.6628 -0.53726,1.2 -1.20001,1.2 -0.66274,0 -1.2,-0.5372 -1.2,-1.2 0,-0.6627 0.53726,-1.2 1.2,-1.2 0.66275,0 1.20001,0.5373 1.20001,1.2 z"/><circle style="fill:red;stroke:red;stroke-width:0" id="circle932" cx="551.25" cy="1129.454" r="1.2" d="m 552.45,1129.4537 c 0,0.6628 -0.53726,1.2 -1.2,1.2 -0.66274,0 -1.2,-0.5372 -1.2,-1.2 0,-0.6627 0.53726,-1.2 1.2,-1.2 0.66274,0 1.2,0.5373 1.2,1.2 z"/><circle style="fill:red;stroke:red;stroke-width:0" id="circle934" cx="553.359" cy="1141.783" r="1.2" d="m 554.55938,1141.7834 c 0,0.6628 -0.53726,1.2 -1.20001,1.2 -0.66274,0 -1.2,-0.5372 -1.2,-1.2 0,-0.6627 0.53726,-1.2 1.2,-1.2 0.66275,0 1.20001,0.5373 1.20001,1.2 z"/><circle style="fill:red;stroke:red;stroke-width:0" id="circle936" cx="555.469" cy="1114.479" r="1.2" d="m 556.66875,1114.4792 c 0,0.6628 -0.53726,1.2 -1.2,1.2 -0.66274,0 -1.2,-0.5372 -1.2,-1.2 0,-0.6627 0.53726,-1.2 1.2,-1.2 0.66274,0 1.2,0.5373 1.2,1.2 z"/><circle style="fill:red;stroke:red;stroke-width:0" id="circle938" cx="557.578" cy="1100.972" r="1.2" d="m 558.77813,1100.9723 c 0,0.6627 -0.53726,1.2 -1.20001,1.2 -0.66274,0 -1.2,-0.5373 -1.2,-1.2 0,-0.6628 0.53726,-1.2 1.2,-1.2 0.66275,0 1.20001,0.5372 1.20001,1.2 z"/><circle style="fill:red;stroke:red;stroke-width:0" id="circle940" cx="559.688" cy="1107.713" r="1.2" d="m 560.8875,1107.7131 c 0,0.6628 -0.53726,1.2 -1.2,1.2 -0.66274,0 -1.2,-0.5372 -1.2,-1.2 0,-0.6627 0.53726,-1.2 1.2,-1.2 0.66274,0 1.2,0.5373 1.2,1.2 z"/><circle style="fill:red;stroke:red;stroke-width:0" id="circle942" cx="561.797" cy="1133.162" r="1.2" d="m 562.99688,1133.1621 c 0,0.6628 -0.53726,1.2 -1.20001,1.2 -0.66274,0 -1.2,-0.5372 -1.2,-1.2 0,-0.6627 0.53726,-1.2 1.2,-1.2 0.66275,0 1.20001,0.5373 1.20001,1.2 z"/><circle style="fill:red;stroke:red;stroke-width:0" id="circle944" cx="563.906" cy="1147.493" r="1.2" d="m 565.10625,1147.4932 c 0,0.6627 -0.53726,1.2 -1.2,1.2 -0.66274,0 -1.2,-0.5373 -1.2,-1.2 0,-0.6628 0.53726,-1.2 1.2,-1.2 0.66274,0 1.2,0.5372 1.2,1.2 z"/><circle style="fill:red;stroke:red;stroke-width:0" id="circle946" cx="566.016" cy="1104.645" r="1.2" d="m 567.21563,1104.6445 c 0,0.6628 -0.53726,1.2 -1.20001,1.2 -0.66274,0 -1.2,-0.5372 -1.2,-1.2 0,-0.6627 0.53726,-1.2 1.2,-1.2 0.66275,0 1.20001,0.5373 1.20001,1.2 z"/><circle style="fill:red;stroke:red;stroke-width:0" id="circle948" cx="568.125" cy="1116.107" r="1.2" d="m 569.325,1116.1073 c 0,0.6627 -0.53726,1.2 -1.2,1.2 -0.66274,0 -1.2,-0.5373 -1.2,-1.2 0,-0.6627 0.53726,-1.2 1.2,-1.2 0.66274,0 1.2,0.5373 1.2,1.2 z"/><circle style="fill:red;stroke:red;stroke-width:0" id="circle950" cx="570.234" cy="1116.281" r="1.2" d="m 571.43438,1116.2805 c 0,0.6628 -0.53726,1.2 -1.20001,1.2 -0.66274,0 -1.2,-0.5372 -1.2,-1.2 0,-0.6627 0.53726,-1.2 1.2,-1.2 0.66275,0 1.20001,0.5373 1.20001,1.2 z"/><circle style="fill:red;stroke:red;stroke-width:0" id="circle952" cx="572.344" cy="1088.646" r="1.2" d="m 573.54375,1088.6464 c 0,0.6627 -0.53726,1.2 -1.2,1.2 -0.66274,0 -1.2,-0.5373 -1.2,-1.2 0,-0.6628 0.53726,-1.2 1.2,-1.2 0.66274,0 1.2,0.5372 1.2,1.2 z"/><circle style="fill:red;stroke:red;stroke-width:0" id="circle954" cx="574.453" cy="1104.676" r="1.2" d="m 575.65313,1104.6758 c 0,0.6627 -0.53726,1.2 -1.20001,1.2 -0.66274,0 -1.2,-0.5373 -1.2,-1.2 0,-0.6628 0.53726,-1.2 1.2,-1.2 0.66275,0 1.20001,0.5372 1.20001,1.2 z"/><circle style="fill:red;stroke:red;stroke-width:0" id="circle956" cx="576.563" cy="1088.555" r="1.2" d="m 577.7625,1088.5555 c 0,0.6628 -0.53726,1.2 -1.2,1.2 -0.66274,0 -1.2,-0.5372 -1.2,-1.2 0,-0.6627 0.53726,-1.2 1.2,-1.2 0.66274,0 1.2,0.5373 1.2,1.2 z"/><circle style="fill:red;stroke:red;stroke-width:0" id="circle958" cx="578.672" cy="1142.139" r="1.2" d="m 579.87188,1142.1385 c 0,0.6628 -0.53726,1.2 -1.20001,1.2 -0.66274,0 -1.2,-0.5372 -1.2,-1.2 0,-0.6627 0.53726,-1.2 1.2,-1.2 0.66275,0 1.20001,0.5373 1.20001,1.2 z"/><circle style="fill:red;stroke:red;stroke-width:0" id="circle960" cx="580.781" cy="1148.076" r="1.2" d="m 581.98125,1148.0763 c 0,0.6627 -0.53726,1.2 -1.2,1.2 -0.66274,0 -1.2,-0.5373 -1.2,-1.2 0,-0.6627 0.53726,-1.2 1.2,-1.2 0.66274,0 1.2,0.5373 1.2,1.2 z"/><circle style="fill:red;stroke:red;stroke-width:0" id="circle962" cx="582.891" cy="1087.29" r="1.2" d="m 584.09063,1087.2904 c 0,0.6627 -0.53726,1.2 -1.20001,1.2 -0.66274,0 -1.2,-0.5373 -1.2,-1.2 0,-0.6627 0.53726,-1.2 1.2,-1.2 0.66275,0 1.20001,0.5373 1.20001,1.2 z"/><circle style="fill:red;stroke:red;stroke-width:0" id="circle964" cx="585" cy="1111.823" r="1.2" d="m 586.2,1111.8226 c 0,0.6628 -0.53726,1.2 -1.2,1.2 -0.66274,0 -1.2,-0.5372 -1.2,-1.2 0,-0.6627 0.53726,-1.2 1.2,-1.2 0.66274,0 1.2,0.5373 1.2,1.2 z"/><circle style="fill:red;stroke:red;stroke-width:0" id="circle966" cx="587.109" cy="1075.443" r="1.2" d="m 588.30938,1075.4427 c 0,0.6628 -0.53726,1.2 -1.20001,1.2 -0.66274,0 -1.2,-0.5372 -1.2,-1.2 0,-0.6627 0.53726,-1.2 1.2,-1.2 0.66275,0 1.20001,0.5373 1.20001,1.2 z"/><circle style="fill:red;stroke:red;stroke-width:0" id="circle968" cx="589.219" cy="1071.332" r="1.2" d="m 590.41875,1071.3319 c 0,0.6628 -0.53726,1.2 -1.2,1.2 -0.66274,0 -1.2,-0.5372 -1.2,-1.2 0,-0.6627 0.53726,-1.2 1.2,-1.2 0.66274,0 1.2,0.5373 1.2,1.2 z"/><circle style="fill:red;stroke:red;stroke-width:0" id="circle970" cx="591.328" cy="1110.585" r="1.2" d="m 592.52813,1110.5848 c 0,0.6628 -0.53726,1.2 -1.20001,1.2 -0.66274,0 -1.2,-0.5372 -1.2,-1.2 0,-0.6627 0.53726,-1.2 1.2,-1.2 0.66275,0 1.20001,0.5373 1.20001,1.2 z"/><circle style="fill:red;stroke:red;stroke-width:0" id="circle972" cx="593.438" cy="1118.633" r="1.2" d="m 594.6375,1118.6335 c 0,0.6628 -0.53726,1.2 -1.2,1.2 -0.66274,0 -1.2,-0.5372 -1.2,-1.2 0,-0.6627 0.53726,-1.2 1.2,-1.2 0.66274,0 1.2,0.5373 1.2,1.2 z"/><circle style="fill:red;stroke:red;stroke-width:0" id="circle974" cx="595.547" cy="1144.44" r="1.2" d="m 596.74688,1144.4396 c 0,0.6627 -0.53726,1.2 -1.20001,1.2 -0.66274,0 -1.2,-0.5373 -1.2,-1.2 0,-0.6628 0.53726,-1.2 1.2,-1.2 0.66275,0 1.20001,0.5372 1.20001,1.2 z"/><circle style="fill:red;stroke:red;stroke-width:0" id="circle976" cx="597.656" cy="1127.349" r="1.2" d="m 598.85625,1127.3485 c 0,0.6628 -0.53726,1.2 -1.2,1.2 -0.66274,0 -1.2,-0.5372 -1.2,-1.2 0,-0.6627 0.53726,-1.2 1.2,-1.2 0.66274,0 1.2,0.5373 1.2,1.2 z"/><circle style="fill:red;stroke:red;stroke-width:0" id="circle978" cx="599.766" cy="1112.466" r="1.2" d="m 600.96563,1112.4664 c 0,0.6628 -0.53726,1.2 -1.20001,1.2 -0.66274,0 -1.2,-0.5372 -1.2,-1.2 0,-0.6627 0.53726,-1.2 1.2,-1.2 0.66275,0 1.20001,0.5373 1.20001,1.2 z"/><circle style="fill:red;stroke:red;stroke-width:0" id="circle980" cx="601.875" cy="1147.713" r="1.2" d="m 603.075,1147.7133 c 0,0.6627 -0.53726,1.2 -1.2,1.2 -0.66274,0 -1.2,-0.5373 -1.2,-1.2 0,-0.6628 0.53726,-1.2 1.2,-1.2 0.66274,0 1.2,0.5372 1.2,1.2 z"/><circle style="fill:red;stroke:red;stroke-width:0" id="circle982" cx="603.984" cy="1121.592" r="1.2" d="m 605.18438,1121.5919 c 0,0.6628 -0.53726,1.2 -1.20001,1.2 -0.66274,0 -1.2,-0.5372 -1.2,-1.2 0,-0.6627 0.53726,-1.2 1.2,-1.2 0.66275,0 1.20001,0.5373 1.20001,1.2 z"/><circle style="fill:red;stroke:red;stroke-width:0" id="circle984" cx="606.094" cy="1133.585" r="1.2" d="m 607.29375,1133.5846 c 0,0.6627 -0.53726,1.2 -1.2,1.2 -0.66274,0 -1.2,-0.5373 -1.2,-1.2 0,-0.6627 0.53726,-1.2 1.2,-1.2 0.66274,0 1.2,0.5373 1.2,1.2 z"/><circle style="fill:red;stroke:red;stroke-width:0" id="circle986" cx="608.203" cy="1067.611" r="1.2" d="m 609.40313,1067.6108 c 0,0.6628 -0.53726,1.2 -1.20001,1.2 -0.66274,0 -1.2,-0.5372 -1.2,-1.2 0,-0.6627 0.53726,-1.2 1.2,-1.2 0.66275,0 1.20001,0.5373 1.20001,1.2 z"/><circle style="fill:red;stroke:red;stroke-width:0" id="circle988" cx="610.313" cy="1130.687" r="1.2" d="m 611.5125,1130.6866 c 0,0.6628 -0.53726,1.2 -1.2,1.2 -0.66274,0 -1.2,-0.5372 -1.2,-1.2 0,-0.6627 0.53726,-1.2 1.2,-1.2 0.66274,0 1.2,0.5373 1.2,1.2 z"/><circle style="fill:red;stroke:red;stroke-width:0" id="circle990" cx="612.422" cy="1096.152" r="1.2" d="m 613.62188,1096.152 c 0,0.6627 -0.53726,1.2 -1.20001,1.2 -0.66274,0 -1.2,-0.5373 -1.2,-1.2 0,-0.6628 0.53726,-1.2 1.2,-1.2 0.66275,0 1.20001,0.5372 1.20001,1.2 z"/><circle style="fill:red;stroke:red;stroke-width:0" id="circle992" cx="614.531" cy="1116.014" r="1.2" d="m 615.73125,1116.014 c 0,0.6628 -0.53726,1.2 -1.2,1.2 -0.66274,0 -1.2,-0.5372 -1.2,-1.2 0,-0.6627 0.53726,-1.2 1.2,-1.2 0.66274,0 1.2,0.5373 1.2,1.2 z"/><circle style="fill:red;stroke:red;stroke-width:0" id="circle994" cx="616.641" cy="1128.401" r="1.2" d="m 617.84063,1128.4012 c 0,0.6628 -0.53726,1.2 -1.20001,1.2 -0.66274,0 -1.2,-0.5372 -1.2,-1.2 0,-0.6627 0.53726,-1.2 1.2,-1.2 0.66275,0 1.20001,0.5373 1.20001,1.2 z"/><circle style="fill:red;stroke:red;stroke-width:0" id="circle996" cx="618.75" cy="1143.662" r="1.2" d="m 619.95,1143.6621 c 0,0.6628 -0.53726,1.2 -1.2,1.2 -0.66274,0 -1.2,-0.5372 -1.2,-1.2 0,-0.6627 0.53726,-1.2 1.2,-1.2 0.66274,0 1.2,0.5373 1.2,1.2 z"/><circle style="fill:red;stroke:red;stroke-width:0" id="circle998" cx="620.859" cy="1092.1" r="1.2" d="m 622.05938,1092.0995 c 0,0.6627 -0.53726,1.2 -1.20001,1.2 -0.66274,0 -1.2,-0.5373 -1.2,-1.2 0,-0.6628 0.53726,-1.2 1.2,-1.2 0.66275,0 1.20001,0.5372 1.20001,1.2 z"/><circle style="fill:red;stroke:red;stroke-width:0" id="circle1000" cx="622.969" cy="1120.214" r="1.2" d="m 624.16875,1120.2137 c 0,0.6628 -0.53726,1.2 -1.2,1.2 -0.66274,0 -1.2,-0.5372 -1.2,-1.2 0,-0.6627 0.53726,-1.2 1.2,-1.2 0.66274,0 1.2,0.5373 1.2,1.2 z"/><circle style="fill:red;stroke:red;stroke-width:0" id="circle1002" cx="625.078" cy="1123.13" r="1.2" d="m 626.27813,1123.1295 c 0,0.6628 -0.53726,1.2 -1.20001,1.2 -0.66274,0 -1.2,-0.5372 -1.2,-1.2 0,-0.6627 0.53726,-1.2 1.2,-1.2 0.66275,0 1.20001,0.5373 1.20001,1.2 z"/><circle style="fill:red;stroke:red;stroke-width:0" id="circle1004" cx="627.188" cy="1003.145" r="1.2" d="m 628.3875,1003.145 c 0,0.6628 -0.53726,1.2 -1.2,1.2 -0.66274,0 -1.2,-0.5372 -1.2,-1.2 0,-0.6627 0.53726,-1.2 1.2,-1.2 0.66274,0 1.2,0.5373 1.2,1.2 z"/><circle style="fill:red;stroke:red;stroke-width:0" id="circle1006" cx="629.297" cy="1115.891" r="1.2" d="m 630.49688,1115.8909 c 0,0.6627 -0.53726,1.2 -1.20001,1.2 -0.66274,0 -1.2,-0.5373 -1.2,-1.2 0,-0.6628 0.53726,-1.2 1.2,-1.2 0.66275,0 1.20001,0.5372 1.20001,1.2 z"/><circle style="fill:red;stroke:red;stroke-width:0" id="circle1008" cx="631.406" cy="1101.028" r="1.2" d="m 632.60625,1101.0284 c 0,0.6628 -0.53726,1.2 -1.2,1.2 -0.66274,0 -1.2,-0.5372 -1.2,-1.2 0,-0.6627 0.53726,-1.2 1.2,-1.2 0.66274,0 1.2,0.5373 1.2,1.2 z"/><circle style="fill:red;stroke:red;stroke-width:0" id="circle1010" cx="633.516" cy="1039.285" r="1.2" d="m 634.71563,1039.2849 c 0,0.6628 -0.53726,1.2 -1.20001,1.2 -0.66274,0 -1.2,-0.5372 -1.2,-1.2 0,-0.6627 0.53726,-1.2 1.2,-1.2 0.66275,0 1.20001,0.5373 1.20001,1.2 z"/><circle style="fill:red;stroke:red;stroke-width:0" id="circle1012" cx="635.625" cy="1105.467" r="1.2" d="m 636.825,1105.4674 c 0,0.6627 -0.53726,1.2 -1.2,1.2 -0.66274,0 -1.2,-0.5373 -1.2,-1.2 0,-0.6627 0.53726,-1.2 1.2,-1.2 0.66274,0 1.2,0.5373 1.2,1.2 z"/><circle style="fill:red;stroke:red;stroke-width:0" id="circle1014" cx="637.734" cy="1132.688" r="1.2" d="m 638.93438,1132.6881 c 0,0.6628 -0.53726,1.2 -1.20001,1.2 -0.66274,0 -1.2,-0.5372 -1.2,-1.2 0,-0.6627 0.53726,-1.2 1.2,-1.2 0.66275,0 1.20001,0.5373 1.20001,1.2 z"/><circle style="fill:red;stroke:red;stroke-width:0" id="circle1016" cx="639.844" cy="1079.338" r="1.2" d="m 641.04375,1079.3381 c 0,0.6628 -0.53726,1.2 -1.2,1.2 -0.66274,0 -1.2,-0.5372 -1.2,-1.2 0,-0.6627 0.53726,-1.2 1.2,-1.2 0.66274,0 1.2,0.5373 1.2,1.2 z"/><circle style="fill:red;stroke:red;stroke-width:0" id="circle1018" cx="641.953" cy="1131.164" r="1.2" d="m 643.15313,1131.1644 c 0,0.6628 -0.53726,1.2 -1.20001,1.2 -0.66274,0 -1.2,-0.5372 -1.2,-1.2 0,-0.6627 0.53726,-1.2 1.2,-1.2 0.66275,0 1.20001,0.5373 1.20001,1.2 z"/><circle style="fill:red;stroke:red;stroke-width:0" id="circle1020" cx="644.063" cy="1124.135" r="1.2" d="m 645.2625,1124.1354 c 0,0.6627 -0.53726,1.2 -1.2,1.2 -0.66274,0 -1.2,-0.5373 -1.2,-1.2 0,-0.6628 0.53726,-1.2 1.2,-1.2 0.66274,0 1.2,0.5372 1.2,1.2 z"/><circle style="fill:red;stroke:red;stroke-width:0" id="circle1022" cx="646.172" cy="1147.168" r="1.2" d="m 647.37188,1147.168 c 0,0.6627 -0.53726,1.2 -1.20001,1.2 -0.66274,0 -1.2,-0.5373 -1.2,-1.2 0,-0.6628 0.53726,-1.2 1.2,-1.2 0.66275,0 1.20001,0.5372 1.20001,1.2 z"/><circle style="fill:red;stroke:red;stroke-width:0" id="circle1024" cx="648.281" cy="1138.572" r="1.2" d="m 649.48125,1138.5718 c 0,0.6627 -0.53726,1.2 -1.2,1.2 -0.66274,0 -1.2,-0.5373 -1.2,-1.2 0,-0.6628 0.53726,-1.2 1.2,-1.2 0.66274,0 1.2,0.5372 1.2,1.2 z"/><circle style="fill:red;stroke:red;stroke-width:0" id="circle1026" cx="650.391" cy="1140.612" r="1.2" d="m 651.59063,1140.6121 c 0,0.6627 -0.53726,1.2 -1.20001,1.2 -0.66274,0 -1.2,-0.5373 -1.2,-1.2 0,-0.6628 0.53726,-1.2 1.2,-1.2 0.66275,0 1.20001,0.5372 1.20001,1.2 z"/></g></svg>